<svg width="16" height="10" viewBox="0 0 16 10" fill="none" xmlns="http://www.w3.org/2000/svg">
<path d="M7.99835 2.88241C8.43051 2.88241 8.85844 2.96753 9.2577 3.13291C9.65696 3.29829 10.0197 3.54069 10.3253 3.84627C10.6309 4.15185 10.8733 4.51463 11.0387 4.91389C11.2041 5.31315 11.2892 5.74108 11.2892 6.17324C11.2892 6.6054 11.2041 7.03332 11.0387 7.43259C10.8733 7.83185 10.6309 8.19463 10.3253 8.50021C10.0197 8.80579 9.65696 9.04819 9.2577 9.21357C8.85844 9.37895 8.43051 9.46407 7.99835 9.46407C7.12557 9.46407 6.28854 9.11736 5.67138 8.50021C5.05423 7.88306 4.70752 7.04602 4.70752 6.17324C4.70752 5.30046 5.05423 4.46342 5.67138 3.84627C6.28854 3.22912 7.12557 2.88241 7.99835 2.88241V2.88241ZM7.99835 4.11631C7.45282 4.11631 6.92964 4.33303 6.54389 4.71877C6.15814 5.10452 5.94143 5.62771 5.94143 6.17324C5.94143 6.71877 6.15814 7.24196 6.54389 7.6277C6.92964 8.01345 7.45282 8.23016 7.99835 8.23016C8.54388 8.23016 9.06707 8.01345 9.45282 7.6277C9.83857 7.24196 10.0553 6.71877 10.0553 6.17324C10.0553 5.62771 9.83857 5.10452 9.45282 4.71877C9.06707 4.33303 8.54388 4.11631 7.99835 4.11631ZM7.99835 0C11.7939 0 15.0686 2.59121 15.978 6.2226C15.9998 6.30189 16.0055 6.38473 15.9947 6.46625C15.984 6.54777 15.9571 6.62632 15.9156 6.69729C15.874 6.76826 15.8188 6.83021 15.753 6.87951C15.6872 6.92881 15.6122 6.96446 15.5324 6.98436C15.4526 7.00427 15.3697 7.00802 15.2884 6.99541C15.2072 6.9828 15.1293 6.95407 15.0593 6.91092C14.9893 6.86777 14.9286 6.81107 14.8809 6.74414C14.8331 6.67722 14.7992 6.60142 14.7811 6.5212C14.3993 5.01124 13.5246 3.67184 12.2955 2.71522C11.0664 1.75859 9.5533 1.23944 7.99581 1.24001C6.43833 1.24058 4.92556 1.76083 3.69718 2.71835C2.46879 3.67586 1.59503 5.01589 1.21433 6.52614C1.17363 6.68383 1.07222 6.81903 0.932228 6.90226C0.792235 6.98548 0.625013 7.00998 0.467032 6.9704C0.309051 6.93083 0.173127 6.83039 0.0889042 6.69099C0.00468132 6.5516 -0.0210077 6.38456 0.0174398 6.2263C0.463738 4.44757 1.49141 2.86889 2.93731 1.74087C4.38322 0.612847 6.16449 0.000136212 7.99835 0Z" fill="#A2A2A2"/>
</svg>
