<svg width="486" height="75" viewBox="0 0 486 75" fill="none" xmlns="http://www.w3.org/2000/svg">
<path d="M50.11 1.36591C49.8005 1.23869 49.8392 1.20531 50.3078 1.19524C50.6327 1.18827 50.8242 1.259 50.7408 1.35516C50.561 1.56249 50.5872 1.56206 50.11 1.36588V1.36591ZM20.894 3.32557C20.8927 3.28882 21.0659 3.21036 21.2792 3.15107C21.5016 3.08931 21.604 3.11606 21.5192 3.21378C21.3771 3.37762 20.8991 3.46309 20.894 3.32558V3.32557ZM14.9372 6.07024C14.9282 5.85868 15.2546 5.69987 15.8868 5.60673C16.1584 5.56675 16.3518 5.63721 16.3571 5.77824C16.3623 5.90996 16.224 6.02012 16.0503 6.02308C15.8766 6.02581 15.5566 6.07787 15.3392 6.13831C15.1218 6.19875 14.9409 6.1681 14.9372 6.0702V6.07024ZM12.428 6.17738C11.8415 5.97569 11.8948 5.95916 13.2391 5.92547C14.0305 5.90551 14.6807 5.96292 14.6841 6.05275C14.6865 6.14261 14.5485 6.22422 14.3753 6.23411C14.2021 6.24397 13.8343 6.28384 13.558 6.32268C13.2817 6.36144 12.7732 6.29611 12.428 6.17738ZM0.230723 11.1442C0.229509 11.103 0.339724 11.0202 0.476297 10.9601C0.612912 10.9 0.727736 10.9318 0.731454 11.0306C0.7355 11.1295 0.624654 11.2124 0.485879 11.2147C0.347088 11.2164 0.232277 11.1854 0.230723 11.1442V11.1442ZM466.763 4.01308C466.932 3.96361 467.273 3.95498 467.52 3.99391C467.767 4.03276 467.629 4.07326 467.212 4.08376C466.796 4.0943 466.594 4.06251 466.763 4.01313V4.01308ZM469.298 7.37637C469.38 7.31854 469.598 7.30879 469.782 7.35479C469.985 7.40557 469.927 7.44679 469.633 7.45996C469.367 7.47188 469.217 7.43418 469.298 7.37643V7.37637ZM477.184 7.37801C476.905 7.34674 476.56 7.24814 476.418 7.15892C476.15 6.99089 477.58 7.09473 478.823 7.33363C479.378 7.44028 479.347 7.45447 478.575 7.44533C478.089 7.43923 477.463 7.40927 477.184 7.378V7.37801ZM21.8776 16.0526C21.8764 16.0168 22.1577 15.9462 22.503 15.8956C22.8483 15.8451 23.1332 15.8696 23.1363 15.9501C23.1387 16.0305 22.8579 16.1011 22.5109 16.1071C22.164 16.1132 21.879 16.0885 21.8776 16.0526ZM20.9969 16.1327C20.9076 16.0408 20.9548 15.9636 21.1018 15.9611C21.2487 15.9584 21.3719 16.0329 21.3754 16.1263C21.3778 16.2197 21.3318 16.2969 21.2705 16.298C21.2093 16.2996 21.0862 16.2246 20.9969 16.1327H20.9969ZM10.9667 16.146C11.4139 15.9447 12.0892 15.7753 12.4676 15.7694L13.1554 15.7594L12.4874 16.0085C12.1201 16.1456 11.4447 16.315 10.9866 16.3851L10.1538 16.5125L10.9667 16.1466L10.9667 16.146ZM22.2817 17.1143C22.2008 17.031 22.4252 16.9579 22.7803 16.9518C23.5535 16.9388 23.6196 17.0344 22.9299 17.1684C22.6542 17.2219 22.3626 17.1975 22.2817 17.1143V17.1143ZM474.923 11.0498C474.914 10.789 475.532 10.7802 475.931 11.0353C476.094 11.1397 475.963 11.2124 475.557 11.2419C475.165 11.2705 474.929 11.1991 474.923 11.0497L474.923 11.0498ZM24.2547 18.8335C24.2457 18.5782 24.7666 18.5014 25.7614 18.6117C26.4521 18.6882 26.5092 18.7178 26.0189 18.7454C25.6724 18.7649 25.1352 18.8312 24.8251 18.8928C24.5128 18.9549 24.2583 18.9284 24.2547 18.8334V18.8335ZM477.203 11.2529C477.199 11.1595 477.31 11.0812 477.449 11.0788C477.588 11.0772 477.704 11.151 477.708 11.2443C477.712 11.3377 477.601 11.416 477.462 11.4184C477.323 11.42 477.207 11.3463 477.203 11.2529ZM480.402 14.0729C480.698 13.9502 480.981 13.9454 481.286 14.0578C481.651 14.1928 481.571 14.2261 480.851 14.2384C480.13 14.2506 480.047 14.2201 480.402 14.0728V14.0729ZM476.843 15.0996C476.839 15.063 477.009 14.986 477.215 14.9287C477.421 14.8714 477.593 14.8985 477.596 14.989C477.6 15.0794 477.432 15.1563 477.224 15.1599C477.016 15.1634 476.844 15.1363 476.843 15.0996V15.0996ZM472.115 16.9457C471.884 16.8507 471.85 16.7845 472.031 16.7799C472.196 16.7755 472.404 16.8474 472.493 16.9393C472.695 17.1468 472.608 17.1483 472.115 16.9454V16.9457ZM451.6 20.4061C451.84 20.3595 452.294 20.3502 452.61 20.3856C452.925 20.4208 452.729 20.459 452.174 20.4703C451.619 20.4816 451.361 20.4528 451.6 20.4062V20.4061ZM448.763 20.4009C448.759 20.3075 448.87 20.2292 449.009 20.2268C449.147 20.2252 449.264 20.2989 449.267 20.3923C449.271 20.4857 449.16 20.564 449.021 20.5664C448.883 20.568 448.766 20.4943 448.763 20.4009ZM427.996 20.7369C428.19 20.5992 428.401 20.5942 428.74 20.7191C429.154 20.8719 429.121 20.8956 428.468 20.9112C427.926 20.9241 427.798 20.8771 427.996 20.737V20.7369ZM460.756 20.3241C460.644 20.155 460.278 20.0293 459.895 20.0281C459.528 20.0264 459.375 19.9834 459.555 19.9312C459.735 19.8791 460.383 19.8782 460.994 19.9296C461.82 19.9986 462.071 20.086 461.974 20.2703C461.902 20.4067 461.735 20.5201 461.603 20.5224C461.471 20.524 461.43 20.4489 461.512 20.3541C461.594 20.2592 461.551 20.1835 461.415 20.1858C461.28 20.1875 461.12 20.2864 461.059 20.4042C460.985 20.5496 460.887 20.524 460.756 20.3244L460.756 20.3241ZM57.6861 28.2493C57.6837 28.1559 57.7299 28.0786 57.791 28.0776C57.8521 28.076 57.9753 28.1509 58.0646 28.2428C58.1539 28.3347 58.1067 28.412 57.9597 28.4145C57.8128 28.4172 57.6896 28.3426 57.6861 28.2493H57.6861ZM423.855 23.7313C424.164 23.5924 425.15 23.6413 425.156 23.7956C425.16 23.8314 424.789 23.8658 424.338 23.8721C423.78 23.8799 423.626 23.8348 423.855 23.7313V23.7313ZM73.5836 34.699C73.5812 34.6578 73.6926 34.575 73.8292 34.5149C73.9658 34.4548 74.0806 34.4866 74.0844 34.5855C74.0884 34.6843 73.9775 34.7672 73.8388 34.7696C73.7 34.7712 73.5852 34.7401 73.5836 34.699ZM71.5631 34.6809C71.5607 34.6109 71.8411 34.5377 72.1866 34.5184C72.532 34.4991 72.7545 34.5527 72.681 34.6374C72.5194 34.8237 71.5696 34.8606 71.5631 34.6809ZM66.3128 36.0718C66.3104 35.9868 66.553 35.9129 66.8537 35.9078C67.1544 35.9026 67.3235 35.953 67.2294 36.0196C66.9635 36.2077 66.3193 36.2445 66.3128 36.0718V36.0718ZM59.774 36.765C59.7649 36.5221 61.207 36.1948 61.8368 36.2967C62.3732 36.3835 62.3615 36.3987 61.6587 36.5263C61.2449 36.6013 60.6528 36.7201 60.343 36.7901C60.0332 36.8601 59.7771 36.8487 59.774 36.765V36.765ZM57.7531 36.7423C57.4244 36.6072 57.4326 36.5827 57.81 36.5741C58.0527 36.568 58.2543 36.6403 58.2578 36.7337C58.2656 36.9408 58.2371 36.9412 57.7532 36.7424L57.7531 36.7423ZM55.7438 37.026C55.7386 36.8889 55.9047 36.7738 56.1129 36.7702C56.3211 36.7668 56.494 36.832 56.4971 36.9154C56.4995 36.9987 56.3342 37.1139 56.128 37.1712C55.8997 37.2347 55.7495 37.1773 55.7438 37.026ZM54.4919 37.3075C54.4895 37.2141 54.5991 37.1358 54.7378 37.1334C54.8766 37.1318 54.9931 37.2055 54.9966 37.2989C54.999 37.3923 54.8894 37.4706 54.7506 37.473C54.6118 37.4746 54.4954 37.4009 54.4919 37.3075ZM49.9562 37.5546C49.9538 37.4612 50.0567 37.383 50.1873 37.3808C50.3179 37.3792 50.4978 37.4519 50.5871 37.5439C50.6764 37.6358 50.5724 37.714 50.356 37.7177C50.1397 37.7212 49.9597 37.648 49.9562 37.5546ZM456.295 30.8727C456.377 30.8149 456.594 30.8051 456.778 30.8511C456.981 30.9019 456.923 30.9431 456.629 30.9563C456.364 30.9682 456.213 30.9306 456.295 30.8728V30.8727ZM46.595 38.1867C46.458 37.9636 46.582 37.9263 47.3179 37.9713C47.8066 38.0013 48.2045 37.973 48.2021 37.9099C48.1997 37.8462 48.4234 37.7502 48.6991 37.6967C49.0249 37.6334 49.2036 37.6827 49.2094 37.838C49.2146 37.9694 48.9634 38.0942 48.6517 38.1155C48.3401 38.1368 47.9149 38.166 47.707 38.1804C47.499 38.1949 47.2011 38.2628 47.0448 38.3315C46.8875 38.4007 46.6866 38.3359 46.595 38.1867V38.1867ZM44.571 38.5287C44.407 38.4238 44.6527 38.1546 44.9166 38.1501C45.0323 38.1485 45.1889 38.2474 45.2646 38.3707C45.3925 38.5791 44.8449 38.7038 44.571 38.5287ZM42.8142 38.7073C42.7311 38.6217 42.765 38.5069 42.8894 38.4521C43.0139 38.3974 43.1852 38.4656 43.27 38.6038C43.4373 38.8762 43.0611 38.9615 42.8141 38.7073H42.8142ZM451.725 32.0394C451.721 31.9566 452.175 31.8992 452.731 31.9118C453.287 31.9243 453.743 31.9843 453.746 32.0451C453.75 32.1059 453.296 32.1633 452.74 32.1728C452.185 32.1823 451.728 32.1222 451.725 32.0394ZM40.9637 39.0834C40.6967 38.9786 40.7164 38.9243 41.0554 38.8301C41.5701 38.687 41.8608 38.8222 41.5349 39.0528C41.4075 39.143 41.1504 39.1567 40.9636 39.0834L40.9637 39.0834ZM39.4124 39.1782C39.4072 39.0381 39.4475 38.9228 39.502 38.9218C39.5565 38.9202 39.6708 39.0336 39.7559 39.1723C39.8411 39.311 39.8009 39.4264 39.6663 39.4287C39.5319 39.4303 39.4176 39.3182 39.4124 39.1782H39.4124ZM37.2675 39.4595C37.0766 39.263 37.7176 39.1686 38.4067 39.2918C38.7562 39.3542 38.9292 39.4214 38.791 39.4408C37.953 39.5588 37.3709 39.5659 37.2675 39.4595ZM34.641 39.8722C34.6386 39.7888 34.804 39.6737 35.0102 39.6164C35.2385 39.5529 35.3887 39.6103 35.3944 39.7616C35.3995 39.8987 35.2334 40.0138 35.0252 40.0174C34.8171 40.0208 34.6442 39.9556 34.641 39.8722ZM33.247 40.1274C32.7541 39.8792 32.7542 39.8763 33.2535 39.9107C33.532 39.9298 33.9107 39.8783 34.095 39.7961C34.367 39.6749 34.3787 39.7155 34.1574 40.0116C33.8319 40.447 33.8716 40.4419 33.2469 40.1274H33.247ZM31.7442 40.2357C31.6588 40.1478 31.8227 40.0719 32.1085 40.067C32.7178 40.0567 32.7828 40.15 32.2662 40.2936C32.0645 40.3497 31.8296 40.3235 31.7442 40.2357V40.2357ZM30.6223 40.4368C30.6132 40.2067 31.0567 40.0561 31.2269 40.2313C31.3084 40.3151 31.2068 40.4304 31.0015 40.4875C30.7961 40.5445 30.6255 40.5217 30.6223 40.4368V40.4368ZM30.3922 41.0306C30.2116 40.8915 30.18 40.7794 30.3208 40.777C30.4596 40.7754 30.7188 40.8849 30.8969 41.022C31.0774 41.1611 31.109 41.2732 30.9682 41.2756C30.8294 41.2773 30.5702 41.1677 30.3922 41.0306ZM450.972 34.0822C450.718 33.9157 450.402 33.827 450.271 33.8848C450.139 33.9427 450.028 33.9137 450.025 33.8203C450.013 33.5187 450.43 33.4585 450.926 33.6899C451.237 33.835 451.555 33.8604 451.815 33.7609C452.077 33.6608 452.391 33.6879 452.705 33.8377C453.162 34.0558 453.155 34.0639 452.581 33.9767C452.195 33.918 451.874 33.9751 451.703 34.1344C451.473 34.3495 451.37 34.3422 450.972 34.0822V34.0822ZM29.1712 41.5611C29.1854 41.239 29.5856 40.6904 29.6103 40.959C29.6233 41.0989 29.528 41.3299 29.3988 41.4722C29.2694 41.6146 29.1671 41.6546 29.1712 41.5611ZM453.599 34.8537C453.595 34.8125 453.708 34.7297 453.844 34.6696C453.981 34.6095 454.096 34.6412 454.099 34.7401C454.103 34.839 453.993 34.9219 453.854 34.9242C453.715 34.9259 453.6 34.8949 453.599 34.8537V34.8537ZM20.5993 42.4815C20.5953 42.3826 20.7061 42.2998 20.8449 42.2974C20.9837 42.2958 21.0985 42.3268 21.1 42.368C21.1012 42.4092 20.991 42.492 20.8545 42.5521C20.7178 42.6122 20.603 42.5804 20.5993 42.4815V42.4815ZM448.747 35.9388C448.65 35.7807 448.739 35.7414 449.04 35.8112C449.401 35.8953 449.419 35.87 449.149 35.6576C448.745 35.3397 448.939 35.1872 449.611 35.2934C450.014 35.3569 450.054 35.4108 449.795 35.5413C449.559 35.6603 449.626 35.6813 450.029 35.6147C450.34 35.5633 450.596 35.5905 450.6 35.6752C450.604 35.7598 450.576 35.8296 450.541 35.8302C450.505 35.8302 450.118 35.9069 449.682 35.9993C449.081 36.1263 448.853 36.1116 448.747 35.9389V35.9388ZM14.0715 43.4682C14.069 43.3947 14.2931 43.3192 14.5702 43.3004C14.8472 43.2816 15.0766 43.3379 15.0799 43.4255C15.0823 43.513 14.8588 43.5885 14.5812 43.5933C14.3036 43.5985 14.0742 43.5417 14.0715 43.4682ZM13.0672 43.6191C13.0647 43.5257 13.2311 43.4464 13.4393 43.4428C13.6474 43.4393 13.8207 43.5129 13.8242 43.6062C13.8266 43.6995 13.6602 43.7788 13.452 43.7824C13.2439 43.7859 13.0707 43.7124 13.0672 43.6191ZM39.5047 50.0216C39.6763 49.9716 39.9602 49.9668 40.1355 50.0109C40.3107 50.055 40.1703 50.096 39.8233 50.1019C39.4763 50.108 39.3329 50.0717 39.5047 50.0217V50.0216ZM34.9357 51.0614C34.8464 50.9695 34.9503 50.8912 35.1667 50.8876C35.3831 50.8841 35.563 50.9572 35.5665 51.0506C35.5689 51.144 35.4661 51.2222 35.3355 51.2244C35.2048 51.2261 35.025 51.1533 34.9357 51.0614ZM29.5342 53.5902C29.7033 53.5407 30.0438 53.5321 30.291 53.571C30.5381 53.6099 30.3997 53.6503 29.9835 53.6609C29.5673 53.6713 29.3651 53.6396 29.5342 53.5902V53.5902ZM36.9331 55.4971C36.2414 55.388 36.4006 55.1508 37.1124 55.2298C37.4611 55.2686 37.7489 55.3677 37.752 55.4502C37.7585 55.6071 37.664 55.6124 36.9331 55.4972V55.4971ZM39.0909 55.8047C38.6471 55.6929 38.6808 55.4146 39.1391 55.4068C39.3473 55.4033 39.5219 55.5149 39.5272 55.655C39.5323 55.7951 39.5081 55.9041 39.4732 55.8973C39.4382 55.8904 39.2662 55.8489 39.0909 55.8047ZM33.7458 56.348C33.7434 56.2547 33.7894 56.1774 33.8506 56.1764C33.9118 56.1747 34.035 56.2497 34.1243 56.3416C34.2136 56.4335 34.1663 56.5108 34.0194 56.5133C33.8724 56.516 33.7493 56.4414 33.7458 56.348H33.7458ZM442.335 59.3013C442.507 59.2512 442.791 59.2465 442.966 59.2906C443.141 59.3347 443.001 59.3757 442.654 59.3816C442.307 59.3877 442.164 59.3514 442.335 59.3013V59.3013ZM439.193 59.5346C439.275 59.4767 439.492 59.467 439.676 59.513C439.88 59.5638 439.821 59.605 439.528 59.6182C439.262 59.6301 439.111 59.5925 439.193 59.5346V59.5346ZM6.6888 66.8992C6.77049 66.8413 6.98795 66.8316 7.17194 66.8776C7.37528 66.9284 7.31699 66.9696 7.02334 66.9828C6.75762 66.9947 6.60707 66.9571 6.6888 66.8992V66.8992ZM435.849 59.7071C435.845 59.6369 436.375 59.5569 437.024 59.5293C437.673 59.5018 438.155 59.5139 438.096 59.5561C437.894 59.6988 435.854 59.836 435.849 59.7072V59.7071ZM8.20314 67.0218C7.44944 66.8591 7.98504 66.6941 9.37216 66.6617C10.3853 66.638 10.9128 66.698 11.0044 66.8472C11.1059 67.0126 10.8119 67.0707 9.8306 67.0792C9.11052 67.0853 8.37815 67.0596 8.20314 67.0219V67.0218ZM9.94301 67.9657C9.94058 67.8723 10.1136 67.7929 10.33 67.7892C10.5464 67.7858 10.6561 67.8601 10.5739 67.955C10.4915 68.0498 10.3174 68.1292 10.1868 68.1314C10.0562 68.1331 9.94653 68.0591 9.94301 67.9657ZM21.9509 70.0225C22.1922 69.9757 22.5896 69.9689 22.8341 70.0075C23.0786 70.0461 22.8812 70.0845 22.3954 70.0927C21.9097 70.1014 21.7096 70.0695 21.9509 70.0226V70.0225ZM372.26 72.3954C372.342 72.3375 372.559 72.3278 372.743 72.3738C372.946 72.4246 372.888 72.4658 372.595 72.479C372.329 72.4909 372.178 72.4533 372.26 72.3954V72.3954ZM390.868 72.1613C390.861 71.98 394.216 71.9408 395.284 72.1097C395.791 72.1899 395.179 72.2438 393.46 72.2707C392.037 72.2929 390.871 72.2437 390.868 72.1613V72.1613ZM386.707 72.2492C386.791 72.1528 386.986 72.1238 387.141 72.1848C387.323 72.2561 387.362 72.1958 387.252 72.0158C387.064 71.709 387.672 71.6009 387.954 71.891C388.043 71.9829 388.536 72.0598 389.048 72.0618L389.98 72.0653L388.976 72.223C387.553 72.4464 386.526 72.4582 386.707 72.2491V72.2492ZM380.341 72.4277C380.423 72.3698 380.64 72.36 380.824 72.406C381.028 72.4568 380.969 72.4981 380.676 72.5112C380.41 72.5231 380.259 72.4855 380.341 72.4277V72.4277ZM450.931 71.3283C450.927 71.2349 451.038 71.1566 451.177 71.1542C451.316 71.1526 451.432 71.2264 451.435 71.3197C451.439 71.4131 451.328 71.4914 451.19 71.4938C451.051 71.4954 450.934 71.4217 450.931 71.3283ZM41.0514 2.19952C41.049 2.10615 40.9383 2.03156 40.8076 2.03379C40.677 2.03542 40.5028 2.1154 40.4206 2.21028C40.3384 2.3051 40.4479 2.37968 40.6644 2.376C40.8808 2.37251 41.055 2.2929 41.0514 2.19952ZM42.0863 2.86143C42.0839 2.76806 41.9096 2.69456 41.7014 2.69811C41.4932 2.70159 41.3258 2.78094 41.3293 2.87433C41.3317 2.9677 41.506 3.04119 41.7142 3.03765C41.9224 3.03416 42.0898 2.95482 42.0863 2.86143ZM38.5838 3.72342C38.5813 3.64494 38.6858 3.62282 38.817 3.67439C38.9482 3.72595 39.124 3.68911 39.2076 3.59286C39.4198 3.34819 39.0268 3.38066 38.0433 3.68905C37.2349 3.94257 37.2294 3.95077 37.8964 3.90934C38.2774 3.88566 38.5867 3.80205 38.5838 3.72354V3.72342ZM423.468 5.7859C423.464 5.74471 423.352 5.71301 423.213 5.71535C423.074 5.71699 422.964 5.80054 422.967 5.89945C422.971 5.99834 423.086 6.0301 423.223 5.97C423.359 5.9099 423.47 5.82709 423.468 5.78592V5.7859ZM27.4875 14.6462C27.5555 14.5982 27.2077 14.5474 26.7147 14.5335C26.1347 14.517 25.8791 14.5707 25.9905 14.6855C26.1559 14.8557 27.2314 14.8275 27.4875 14.6462V14.6462ZM24.0996 14.707C24.0971 14.6266 23.9254 14.6077 23.7192 14.6649C23.5131 14.7222 23.3469 14.8349 23.3499 14.9153C23.3523 14.9958 23.5241 15.0148 23.7302 14.9575C23.9364 14.9002 24.1026 14.7875 24.0996 14.707ZM30.9287 15.0183C30.9263 14.9771 30.7488 14.9464 30.5325 14.9502C30.3161 14.9537 30.2133 15.0333 30.3041 15.1267C30.454 15.2811 30.9354 15.1975 30.9287 15.0183V15.0183ZM31.9774 15.1315C31.7939 15.0937 31.5268 15.1456 31.3838 15.2468C31.2013 15.3759 31.3007 15.3964 31.7176 15.3153C32.0566 15.2495 32.168 15.1706 31.9774 15.1314V15.1315ZM35.2791 16.5581C35.2751 16.4592 35.1605 16.4275 35.0239 16.4876C34.8873 16.5477 34.7768 16.6305 34.7783 16.6716C34.7808 16.7128 34.8947 16.7446 35.0335 16.7422C35.1723 16.7406 35.2828 16.657 35.2791 16.5581V16.5581ZM472.083 9.37514C472.079 9.33395 471.966 9.30224 471.828 9.30459C471.689 9.30623 471.578 9.38978 471.582 9.48867C471.586 9.58757 471.701 9.61932 471.837 9.55922C471.974 9.49912 472.084 9.41629 472.083 9.37513V9.37514ZM470.107 10.541C470.103 10.4595 469.872 10.3568 469.593 10.3127C469.314 10.2685 469.088 10.3066 469.091 10.3964C469.095 10.4866 468.964 10.508 468.801 10.4441C468.639 10.3802 468.573 10.3979 468.656 10.4833C468.852 10.6847 470.114 10.7349 470.107 10.541V10.541ZM472.094 10.6783C472.334 10.5702 472.217 10.5098 471.685 10.4665C470.792 10.3937 470.301 10.4917 470.505 10.7007C470.691 10.8924 471.649 10.8789 472.094 10.6784V10.6783ZM47.6072 18.7366C47.5178 18.6447 47.3096 18.573 47.1444 18.5772C46.9639 18.5824 46.9975 18.648 47.2287 18.743C47.7214 18.9456 47.8087 18.9441 47.6072 18.7369L47.6072 18.7366ZM465.709 13.2C465.525 13.1541 465.308 13.1638 465.226 13.2217C465.144 13.2795 465.295 13.3171 465.56 13.3052C465.854 13.2921 465.912 13.2507 465.709 13.2L465.709 13.2ZM470.225 13.7028C470.446 13.642 470.317 13.5987 469.914 13.5977C469.387 13.596 469.265 13.6579 469.391 13.8622C469.481 14.0087 469.621 14.056 469.702 13.9674C469.784 13.8787 470.019 13.7596 470.225 13.7028ZM420.525 20.2552C420.341 20.2092 420.123 20.2189 420.042 20.2768C419.96 20.3346 420.11 20.3722 420.376 20.3603C420.67 20.3472 420.728 20.3059 420.525 20.2551V20.2552ZM415.065 20.0005C414.979 19.9456 414.924 20.0468 414.941 20.2256C414.961 20.4232 415.022 20.4624 415.098 20.3256C415.166 20.2018 415.151 20.0555 415.066 20.0005H415.065ZM417.18 20.441C417.476 20.3075 417.464 20.2406 417.1 20.0081C416.864 19.8568 416.673 19.8149 416.677 19.9149C416.681 20.015 416.514 20.0997 416.305 20.1033C415.911 20.1094 415.812 20.3126 416.11 20.503C416.346 20.6539 416.76 20.6299 417.18 20.441L417.18 20.441ZM418.984 20.8403C418.979 20.7102 419.16 20.5525 419.386 20.4897C419.946 20.3342 419.739 20.2419 418.602 20.1401L417.641 20.0541L418.119 20.5688C418.626 21.1148 418.999 21.2317 418.984 20.8403V20.8403ZM421.746 21.0547C421.37 20.9748 421.187 21.1529 421.41 21.3823C421.551 21.5277 421.653 21.5179 421.804 21.3444C421.924 21.2069 421.9 21.0874 421.746 21.0547V21.0547ZM390.266 22.6278C390.262 22.5577 389.805 22.4908 389.25 22.4791C388.695 22.4674 388.243 22.5323 388.247 22.6236C388.251 22.7148 388.707 22.7817 389.262 22.7723C389.817 22.7628 390.269 22.6978 390.266 22.6278ZM395.823 22.6505C395.819 22.5516 395.704 22.5199 395.568 22.5799C395.431 22.64 395.32 22.7228 395.322 22.764C395.326 22.8052 395.438 22.8369 395.577 22.8346C395.716 22.8329 395.826 22.7494 395.823 22.6505V22.6505ZM399.363 23.3403C399.419 23.3061 398.737 23.2995 397.847 23.3257C396.608 23.3622 396.407 23.3991 396.99 23.4833C397.679 23.5827 399.104 23.4968 399.363 23.3403V23.3403ZM401.053 24.1004C401.136 24.0056 401.026 23.931 400.81 23.9347C400.593 23.9382 400.419 24.0178 400.423 24.1112C400.427 24.2045 400.536 24.2791 400.666 24.2769C400.797 24.2753 400.971 24.1953 401.053 24.1004ZM73.0864 33.6461C72.9024 33.6002 72.685 33.6099 72.6032 33.6677C72.5216 33.7256 72.6721 33.7632 72.9378 33.7513C73.2315 33.7382 73.2897 33.6969 73.0864 33.6461V33.6461ZM73.5394 36.1789C73.4534 36.1239 73.3975 36.2252 73.4152 36.404C73.4349 36.6015 73.496 36.6407 73.5716 36.5039C73.6399 36.3801 73.6254 36.2339 73.5395 36.1789H73.5394ZM53.4886 37.4836C53.4845 37.3847 53.37 37.3529 53.2334 37.413C53.0968 37.4731 52.9863 37.5559 52.9878 37.5971C52.9903 37.6383 53.1042 37.6701 53.243 37.6676C53.3818 37.666 53.4923 37.5825 53.4886 37.4835V37.4836ZM51.9809 37.6791C51.9769 37.5802 51.8623 37.5485 51.7258 37.6086C51.5892 37.6687 51.4787 37.7515 51.4802 37.7927C51.4826 37.8339 51.5966 37.8656 51.7353 37.8632C51.8741 37.8616 51.9847 37.778 51.9809 37.6791ZM58.053 38.0004C58.0505 37.9592 57.9366 37.9275 57.7978 37.9299C57.659 37.9315 57.5485 38.0151 57.5523 38.114C57.5563 38.2129 57.6708 38.2446 57.8074 38.1845C57.944 38.1244 58.0545 38.0416 58.053 38.0005V38.0004ZM52.7964 38.446C52.8456 38.0585 52.6779 37.5833 52.4367 37.4265C52.2692 37.3177 52.2469 37.4204 52.3717 37.7269C52.5259 38.1054 52.4871 38.175 52.1652 38.0981C51.8819 38.0304 51.7834 38.0997 51.8198 38.3437C51.8724 38.6946 52.7531 38.7869 52.7964 38.446H52.7964ZM33.695 41.5718C33.6926 41.5023 33.4077 41.4867 33.0625 41.5373C32.6566 41.5967 32.4318 41.5521 32.4265 41.4114C32.4224 41.2915 32.3472 41.2438 32.2603 41.3053C31.9705 41.5104 32.7084 41.8909 33.2077 41.7939C33.4783 41.7414 33.6976 41.6414 33.695 41.5719V41.5718ZM31.4955 41.8328C31.3202 41.7887 31.0363 41.7935 30.8646 41.8435C30.6929 41.8936 30.8363 41.9297 31.1833 41.9238C31.5303 41.9177 31.6707 41.877 31.4955 41.8328V41.8328ZM43.8545 49.3372C43.8635 49.1671 43.8934 49.1666 44.0017 49.3345C44.0761 49.45 44.2477 49.5426 44.3831 49.5403C44.5185 49.5387 44.5665 49.4714 44.4897 49.3923C44.3456 49.244 46.6385 48.994 48.4655 48.9588C49.0349 48.9474 49.7572 48.888 50.0705 48.8257C50.5778 48.7249 50.5946 48.6913 50.2236 48.5183C49.9549 48.3929 49.365 48.3698 48.5619 48.453C47.8772 48.524 47.2565 48.52 47.1827 48.4439C47.1089 48.3678 46.5441 48.3143 45.9278 48.3248C45.3115 48.3352 44.8047 48.2769 44.8016 48.1949C44.7991 48.1129 44.4281 48.0837 43.9785 48.13C43.5289 48.1762 42.7079 48.2487 42.154 48.291C41.6001 48.3334 40.9781 48.4113 40.7717 48.4642C40.5654 48.5171 39.7304 48.6183 38.9162 48.6889C36.6468 48.8859 36.288 49.1571 38.3349 49.1284C39.3704 49.114 40.0357 49.0341 40.0316 48.9248C40.0275 48.8259 40.1658 48.8004 40.338 48.868C40.5103 48.9357 41.1082 48.9721 41.6667 48.9491C42.5264 48.9136 42.5862 48.9309 42.0567 49.0621C41.4899 49.2024 41.52 49.217 42.3782 49.2177C42.899 49.2177 43.328 49.295 43.3315 49.3883C43.3406 49.6367 43.8404 49.5877 43.8545 49.3369L43.8545 49.3372ZM47.8838 49.584C47.8773 49.423 47.1193 49.3547 46.9902 49.5036C46.9116 49.5943 47.0809 49.6645 47.3667 49.6596C47.6525 49.6544 47.8852 49.6208 47.8838 49.584V49.584ZM51.216 49.6479C51.032 49.6019 50.8146 49.6117 50.7328 49.6695C50.651 49.7273 50.8017 49.7649 51.0674 49.753C51.361 49.74 51.4193 49.6986 51.216 49.6479V49.6479ZM53.0656 49.7325C52.9762 49.6406 52.7329 49.5682 52.5247 49.5718C52.3166 49.5753 52.2193 49.6534 52.3086 49.7454C52.3979 49.8373 52.6412 49.9096 52.8494 49.906C53.0576 49.9026 53.1548 49.8244 53.0656 49.7325ZM45.9297 50.0777C45.7457 50.0317 45.5283 50.0415 45.4466 50.0993C45.3649 50.1571 45.5154 50.1947 45.7811 50.1828C46.0748 50.1698 46.133 50.1284 45.9297 50.0777V50.0777ZM38.2544 52.0233C38.3366 51.9284 38.2904 51.8528 38.1516 51.8551C38.0128 51.8568 37.8319 51.937 37.7497 52.0319C37.6675 52.1267 37.7137 52.2024 37.8525 52.2C37.9913 52.1984 38.1721 52.1181 38.2544 52.0233H38.2544ZM41.0757 52.2633C41.1698 52.1967 41.0007 52.1464 40.7 52.1515C40.3993 52.1567 40.1781 52.0657 40.2084 51.9494C40.2449 51.8092 40.0093 51.7615 39.5087 51.8079C38.459 51.9053 38.4474 51.9679 39.4319 52.2241C40.327 52.4571 40.7863 52.468 41.0756 52.2632L41.0757 52.2633ZM49.1554 53.6639C49.2784 53.5917 49.1897 53.5359 48.9584 53.5398C48.7246 53.5442 48.5445 53.6789 48.5529 53.8441C48.5619 54.0136 48.6461 54.0668 48.7499 53.9681C48.8499 53.873 49.0324 53.7361 49.1554 53.6639ZM54.1116 54.0467C54.1064 53.9066 53.9178 53.7952 53.6926 53.799C53.3573 53.8051 53.3418 53.8511 53.6069 54.0553C53.785 54.1924 53.9735 54.3039 54.0259 54.303C54.0783 54.3014 54.1169 54.1868 54.1116 54.0467H54.1116ZM41.4743 55.1301C41.2904 55.0034 41.0854 54.9572 41.0186 55.0275C40.9518 55.0977 40.7285 55.2017 40.5223 55.2585C40.3161 55.3154 40.5223 55.3616 40.978 55.3612C41.6752 55.3612 41.7548 55.3235 41.4743 55.1301ZM43.3024 55.328C42.5568 55.2144 42.2846 55.3093 42.7885 55.5072C42.9831 55.5836 43.3211 55.5963 43.5398 55.5354C43.8447 55.4506 43.7894 55.4022 43.3024 55.328V55.328ZM68.7337 54.9764C68.647 54.9209 68.4467 55.0563 68.2887 55.2772C68.014 55.6612 68.021 55.6657 68.4464 55.3781C68.6912 55.2126 68.8205 55.0319 68.7337 54.9764ZM63.3889 55.6725C63.2996 55.5806 63.1765 55.5062 63.1153 55.5073C63.0541 55.5089 63.007 55.5856 63.0105 55.679C63.0129 55.7723 63.1371 55.8467 63.2841 55.8442C63.4311 55.8415 63.4782 55.7644 63.3889 55.6725H63.3889ZM59.8626 55.9024C59.7733 55.8105 59.5651 55.7388 59.3999 55.743C59.2193 55.7483 59.2529 55.8138 59.4841 55.9089C59.9768 56.1114 60.0642 56.1099 59.8626 55.9028L59.8626 55.9024ZM44.5963 56.1624C44.5938 56.069 44.4696 55.9947 44.3226 55.9972C44.1757 55.9999 44.1285 56.0769 44.2178 56.1688C44.3071 56.2608 44.4302 56.3351 44.4914 56.334C44.5526 56.3324 44.5997 56.2558 44.5962 56.1624H44.5963ZM50.6152 56.7974C50.7322 56.8434 52.0745 56.9027 53.598 56.9294C55.6524 56.9652 56.1708 56.9363 55.6046 56.8176C55.1846 56.7295 54.215 56.6273 53.4498 56.5905C52.6846 56.5537 51.6758 56.4502 51.2081 56.3605C50.7404 56.2707 49.6576 56.1815 48.8019 56.1622C47.9462 56.1429 47.2457 56.1161 47.2453 56.1027C47.2453 56.0893 46.7046 56.0772 46.0449 56.0758C45.3852 56.0742 44.8474 56.1269 44.8499 56.1926C44.8564 56.3655 46.6123 56.6353 47.6435 56.6217C48.1293 56.6156 48.8145 56.7063 49.1661 56.8239C49.5702 56.959 49.9152 56.9781 50.1038 56.8757C50.268 56.7867 50.4981 56.7514 50.6152 56.7973V56.7974ZM467.619 50.5421C467.435 50.4961 467.217 50.5058 467.135 50.5637C467.054 50.6215 467.204 50.6591 467.47 50.6472C467.764 50.6341 467.822 50.5928 467.619 50.542V50.5421ZM44.2048 57.9217C44.0208 57.8758 43.8034 57.8855 43.7216 57.9433C43.6399 58.0012 43.7905 58.0388 44.0562 58.0269C44.3498 58.0138 44.4081 57.9724 44.2048 57.9217V57.9217ZM34.3653 59.3909C34.3575 59.1942 32.4234 59.1972 32.2526 59.3944C32.188 59.4688 32.6383 59.536 33.2533 59.5435C33.8683 59.5514 34.3687 59.4825 34.3653 59.3911V59.3909ZM429.977 59.2007C430.153 59.0766 427.821 59.1319 426.68 59.2789C426.161 59.3456 425.739 59.4514 425.742 59.5139C425.747 59.64 429.778 59.3419 429.977 59.2006V59.2007ZM425.374 59.4958C425.472 59.4264 423.314 59.4854 422.461 59.5755C422.392 59.5825 422.484 59.6489 422.667 59.7224C422.992 59.8536 425.12 59.6755 425.374 59.4957V59.4958ZM453.399 59.5717C453.314 59.4838 453.079 59.4578 452.877 59.5139C452.361 59.6575 452.426 59.7508 453.035 59.7405C453.321 59.7352 453.484 59.6597 453.399 59.5718V59.5717ZM108.894 73.93C108.892 73.8396 108.719 73.8125 108.513 73.8698C108.307 73.9271 108.139 74.0039 108.141 74.0406C108.143 74.0774 108.314 74.1045 108.522 74.1009C108.73 74.0974 108.897 74.0204 108.894 73.93V73.93ZM198.332 73.4211C198.253 73.2355 198.087 73.0855 197.965 73.0876C197.704 73.0919 197.68 73.4939 197.931 73.6544C198.27 73.8713 198.475 73.7526 198.332 73.4211H198.332ZM447.914 70.4144C447.73 70.3684 447.512 70.3782 447.431 70.436C447.349 70.4939 447.499 70.5315 447.765 70.5196C448.059 70.5065 448.117 70.4652 447.914 70.4144V70.4144ZM429.842 71.178C429.752 71.0861 429.629 71.0117 429.568 71.0127C429.507 71.0144 429.46 71.091 429.463 71.1844C429.467 71.2778 429.59 71.3522 429.737 71.3497C429.884 71.3469 429.931 71.2699 429.842 71.178H429.842ZM431.687 72.0544C431.592 71.9941 430.634 71.9332 429.556 71.9189C427.652 71.8936 420.091 71.8609 418.947 71.8729C418.635 71.8764 418.377 71.8115 418.374 71.7291C418.37 71.6426 417.953 71.6495 417.386 71.7459C416.688 71.864 416.109 71.8478 415.387 71.6899C414.827 71.5678 414.328 71.4974 414.277 71.5336C414.118 71.6456 410.564 71.6609 404.48 71.5757C404.272 71.573 403.935 71.4882 403.731 71.3876C403.464 71.2561 403.408 71.2566 403.534 71.3892C403.646 71.5087 403.443 71.5722 402.958 71.5689C402.546 71.5662 402.206 71.4977 402.203 71.4167C402.199 71.3358 401.971 71.3134 401.695 71.3669C401.419 71.4206 401.192 71.4042 401.189 71.3306C401.18 71.1036 398.134 71.2996 397.925 71.5405C397.79 71.6963 397.68 71.7068 397.554 71.5762C397.326 71.3423 395.887 71.3562 395.896 71.5922C395.9 71.7128 395.749 71.7159 395.412 71.6022C395.054 71.4812 394.893 71.4938 394.819 71.6488C394.747 71.8008 394.559 71.7718 394.164 71.5473C393.824 71.3543 393.613 71.3131 393.618 71.4407C393.623 71.575 393.435 71.611 393.085 71.5428C392.724 71.4724 392.604 71.4983 392.723 71.6205C392.825 71.7264 392.761 71.7738 392.569 71.733C392.387 71.6942 391.555 71.6297 390.72 71.5898C389.885 71.5499 388.86 71.4953 388.443 71.4684C387.713 71.4215 386.311 71.8538 386.321 72.1224C386.325 72.1936 386.04 72.17 385.69 72.0699C385.196 71.9286 385.115 71.8357 385.327 71.655C385.51 71.4982 385.512 71.4237 385.333 71.4267C385.187 71.4294 385.006 71.5731 384.931 71.7464C384.813 72.0196 384.569 72.0576 383.094 72.0321C379.075 71.9626 371.059 72.1998 370.891 72.3932C370.682 72.6351 368.364 72.6173 368.126 72.3719C368.01 72.2525 367.781 72.2641 367.403 72.4087C367.049 72.5439 365.235 72.6629 362.377 72.7384C359.917 72.8035 357.773 72.9143 357.613 72.9848C357.452 73.0553 357.318 73.0321 357.314 72.9332C357.306 72.7109 355.876 72.7176 355.683 72.9411C355.596 73.0406 355.235 73.037 354.747 72.9318C354.173 72.808 353.831 72.8139 353.518 72.9528C353.28 73.0587 353.012 73.0989 352.923 73.042C352.709 72.9052 339.374 73.2186 339.037 73.3683C338.63 73.5496 338.163 73.5729 338.014 73.4193C337.94 73.3424 337.514 73.3566 337.068 73.4509C336.541 73.5622 336.225 73.5632 336.166 73.4536C336.049 73.2342 335.359 73.2457 335.367 73.4672C335.371 73.5606 335.253 73.639 335.106 73.6415C334.959 73.6442 334.903 73.5725 334.981 73.4827C335.135 73.3053 331.29 73.4263 330.868 73.6121C330.733 73.6715 330.576 73.6334 330.519 73.5277C330.445 73.3897 330.263 73.4033 329.874 73.5758C329.399 73.787 329.289 73.7782 328.975 73.5036C328.705 73.2678 328.57 73.2443 328.428 73.4079C328.278 73.5811 328.198 73.581 328.029 73.4079C327.861 73.2347 327.684 73.2344 327.158 73.4063C326.795 73.5251 326.362 73.5685 326.197 73.5027C325.544 73.2434 322.73 73.1404 322.739 73.376C322.743 73.4853 322.598 73.4755 322.362 73.3505C322.142 73.2334 321.793 73.2044 321.539 73.2819C320.947 73.4633 320.151 73.4836 319.754 73.3275C319.574 73.2571 319.293 73.2784 319.129 73.375C318.84 73.5448 318.551 73.5439 316.237 73.3663C315.497 73.3097 315.163 73.3462 315.168 73.483C315.173 73.6173 315.071 73.63 314.854 73.522C314.677 73.434 314.078 73.3599 313.522 73.3574C312.967 73.3547 311.318 73.334 309.859 73.3109C308.4 73.2878 305.502 73.2585 303.418 73.2458C301.334 73.233 299.004 73.201 298.239 73.1745C296.697 73.1209 292.951 73.1274 292.558 73.1842C292.42 73.2042 292.224 73.2134 292.122 73.2046C291.559 73.1564 288.185 73.0745 287.758 73.0986C287.48 73.1142 286.799 73.129 286.244 73.1314C285.688 73.133 284.666 73.1501 283.973 73.1679C283.279 73.1854 282.598 73.1954 282.459 73.1896C282.319 73.1835 280.501 73.1709 278.418 73.161C276.334 73.151 273.975 73.1252 273.176 73.1036C272.377 73.082 271.725 73.1356 271.729 73.2226C271.731 73.3096 271.612 73.3327 271.462 73.2739C271.053 73.113 265.782 73.1388 265.407 73.3036C265.222 73.3852 264.661 73.342 264.105 73.2031C263.3 73.0021 263.06 72.9992 262.742 73.1865C262.422 73.374 262.313 73.3719 262.117 73.1739C261.967 73.0235 261.879 73.0094 261.882 73.1363C261.884 73.2843 261.157 73.3326 259.17 73.3166C257.677 73.3045 256.17 73.2565 255.821 73.2099C254.72 73.0629 251.429 73.1595 250.713 73.3599C250.242 73.4917 250.024 73.4967 250.02 73.3761C250.017 73.2791 249.815 73.2168 249.573 73.2376C249.33 73.2584 249.075 73.2601 249.005 73.2419C248.935 73.2235 247.854 73.1963 246.604 73.1814C245.353 73.1667 243.704 73.1324 242.939 73.1054C242.162 73.078 241.409 73.1383 241.231 73.2421C240.998 73.3786 234.248 73.6247 234.243 73.4969C234.243 73.4882 233.361 73.4598 232.284 73.4332C231.126 73.4046 230.328 73.4511 230.331 73.5467C230.335 73.6441 230.018 73.6398 229.536 73.5358C228.946 73.4085 228.615 73.4164 228.278 73.5661C227.754 73.7989 227.481 73.8328 227.645 73.6447C227.769 73.5017 227.509 73.4969 221.417 73.5286C219.085 73.5408 217.115 73.4875 217.04 73.4103C216.965 73.3331 216.811 73.3104 216.699 73.3599C216.586 73.4094 212.382 73.5497 207.356 73.6717C197.886 73.9016 195.846 73.8317 195.147 73.2531C194.975 73.1113 194.606 72.9747 194.328 72.9496C193.917 72.9127 193.841 72.9841 193.925 73.3269L194.028 73.7499L193.376 73.3609C193.018 73.147 192.627 73.0148 192.508 73.0672C192.389 73.1196 192.134 73.1005 191.941 73.0247C191.748 72.9489 191.332 72.9581 191.016 73.0452C190.665 73.1419 190.38 73.1398 190.283 73.0399C190.195 72.95 190.022 72.9213 189.897 72.9761C189.673 73.0748 187.845 73.117 184.549 73.0998C183.184 73.0928 182.842 73.1418 182.834 73.3459C182.826 73.5202 182.781 73.5345 182.688 73.3908C182.5 73.0978 181.921 73.1385 181.753 73.4566C181.634 73.6807 181.525 73.6891 181.033 73.5114C180.576 73.3458 176.733 73.3612 162.789 73.5845C153.074 73.7401 143.534 73.8464 141.588 73.8207C137.172 73.7624 130.619 73.7581 121.018 73.8074C116.927 73.8285 113.576 73.8382 113.57 73.829C113.513 73.7291 110.601 73.8158 110.36 73.9246C110.111 74.0365 110.109 74.07 110.35 74.0679C110.524 74.0663 110.669 74.1466 110.673 74.246C110.677 74.3611 110.157 74.4098 109.242 74.3798C108.127 74.3433 107.76 74.2614 107.605 74.0144C107.411 73.7061 107.405 73.7061 107.399 74.0144C107.394 74.2851 107.333 74.3003 106.986 74.1163C106.529 73.874 106.341 73.8555 103.371 73.7604C101.594 73.7035 101.188 73.7398 100.797 73.9902C100.396 74.2467 100.311 74.2532 100.179 74.0371C100.051 73.8285 99.2555 73.7974 95.4321 73.8515C92.9061 73.8872 90.3265 73.8754 89.6996 73.8253C86.8227 73.5955 79.7711 73.6647 79.6455 73.9239C79.5307 74.1611 79.1222 74.1279 78.6807 73.8455C78.4672 73.7089 78.0455 73.6103 77.7436 73.6263C77.3127 73.6491 77.2909 73.6705 77.6423 73.7258C77.8884 73.7646 78.0266 73.8693 77.9492 73.9585C77.8717 74.0477 77.7131 74.0832 77.5965 74.0375C77.48 73.9918 76.4345 73.9305 75.2732 73.9013C74.112 73.8721 72.8175 73.8173 72.3966 73.7792C71.9756 73.7411 70.0991 73.6963 68.2266 73.6798C66.3541 73.6631 64.1379 73.587 63.3018 73.5105C62.4657 73.4339 61.157 73.3796 60.3935 73.3896C59.6301 73.3997 58.5482 73.3358 57.9894 73.2476C57.4306 73.1594 56.0645 73.0901 54.9537 73.0937C53.6535 73.098 52.8047 73.0207 52.5711 72.8772C52.2254 72.6649 51.5714 72.6961 49.8374 73.0076C49.4572 73.0759 49.2702 73.0317 49.2642 72.8723C49.259 72.7421 49.056 72.6264 48.8126 72.6151C46.8423 72.5241 45.8947 72.4374 45.5149 72.3137C45.2711 72.2341 44.6153 72.1239 44.0577 72.0687C43.5001 72.0135 42.4722 71.8717 41.7734 71.7536C41.0746 71.6355 38.6797 71.4035 36.4515 71.2379C34.2233 71.0723 32.2845 70.8809 32.1431 70.8124C32.0016 70.7439 31.1777 70.646 30.3122 70.5948C29.3377 70.5371 28.7568 70.4266 28.7863 70.3045C28.8127 70.1953 28.4558 70.0895 27.986 70.0673C27.3371 70.0367 27.1869 70.079 27.3469 70.2481C27.5174 70.4283 27.4815 70.4305 27.1518 70.26C26.9296 70.1451 26.4221 70.0722 26.0241 70.0979C25.6261 70.1237 24.8455 70.1309 24.2894 70.1141C22.2822 70.053 24.3987 69.793 27.4733 69.7229C30.3738 69.6569 31.2123 69.563 31.2026 69.3052C31.1923 69.0178 29.0408 68.8766 25.2265 68.9131C23.0205 68.9342 20.845 68.9131 20.3919 68.8675C19.8485 68.8121 19.5706 68.8512 19.5756 68.9822C19.5796 69.0915 19.4776 69.1395 19.3487 69.0888C19.2197 69.0382 19.068 69.0941 19.0114 69.212C18.9365 69.3688 18.7641 69.3452 18.3753 69.1248C18.0167 68.9214 17.5442 68.8447 16.933 68.8907C16.1774 68.9475 15.9198 68.8753 15.406 68.4637C14.7134 67.9087 14.8494 67.9334 12.5296 67.9405C11.3272 67.944 10.935 67.8953 11.1977 67.7747C11.4025 67.6806 11.8255 67.5981 12.1377 67.5913C12.4499 67.5844 12.7025 67.5027 12.699 67.4093C12.6965 67.3159 12.5033 67.2428 12.272 67.2467C12.0407 67.2511 11.9197 67.2056 12.003 67.1466C12.0864 67.0876 12.8983 67.0232 13.8072 67.0035C14.7161 66.9838 15.4574 66.9036 15.4545 66.8253C15.448 66.6583 15.1723 66.6267 13.8061 66.6362C12.6409 66.644 12.2365 66.3772 13.1588 66.2087L13.7857 66.0941L13.1405 65.7219C12.6642 65.4472 12.1109 65.3407 11.0279 65.3153C10.2208 65.2964 9.28247 65.1649 8.94266 65.0232C8.57888 64.8716 7.72424 64.7678 6.86428 64.771C5.50499 64.7762 5.4699 64.7666 6.35812 64.6351C7.61266 64.4494 7.90979 64.2315 7.52693 63.7782C7.363 63.5841 7.26125 63.4243 7.30082 63.4232C7.81998 63.4082 15.8153 62.7484 16.1827 62.6902C16.4588 62.6465 16.9683 62.5988 17.3149 62.5844C17.8171 62.5635 17.867 62.5259 17.5605 62.3999C17.2567 62.275 17.3111 62.2389 17.8192 62.2282C18.173 62.2204 18.5678 62.1401 18.6965 62.0491C18.8251 61.958 19.61 61.8295 20.4406 61.7636C21.2712 61.6976 21.9857 61.567 22.0285 61.4734C22.0714 61.3798 22.2738 61.3003 22.4786 61.2968C22.6835 61.2934 22.7812 61.2185 22.6958 61.1307C22.6105 61.0428 22.357 61.0219 22.1327 61.0843C21.8608 61.1599 21.783 61.1306 21.8992 60.9966C22.0045 60.8752 21.8408 60.7394 21.4859 60.6536C19.5694 60.1905 19.5624 60.1749 21.2639 60.1654C23.7938 60.1511 25.3597 60.0467 26.1078 59.8424C26.4834 59.7397 26.9936 59.7114 27.2417 59.7794C27.4898 59.8473 27.7893 59.8865 27.9073 59.8664C28.0253 59.8463 28.2836 59.9155 28.4812 60.0204C28.7415 60.1584 28.8386 60.1584 28.8334 60.0203C28.8293 59.9155 29.1984 59.8234 29.6532 59.8157C30.1081 59.8078 30.7282 59.6784 31.0312 59.5277C31.3341 59.3771 31.5837 59.2982 31.5857 59.3523C31.5882 59.4064 31.8621 59.3238 32.1953 59.1687C32.9412 58.8214 35.5877 58.3426 35.5956 58.5536C35.5981 58.6382 35.8133 58.626 36.0744 58.5262C36.4316 58.3897 36.5844 58.4058 36.6987 58.592C36.7984 58.7542 37.1113 58.8135 37.6142 58.7655C38.0345 58.7252 38.3809 58.7611 38.3841 58.8458C38.3865 58.9302 38.6065 58.9165 38.8714 58.8153C39.1362 58.714 39.7859 58.6187 40.3153 58.6033C41.0837 58.581 41.1748 58.5477 40.7675 58.4379C40.4869 58.3622 39.9434 58.2605 39.5597 58.2119C39.1759 58.1632 38.8598 58.0654 38.8571 57.9945C38.8519 57.8597 40.7191 57.8526 41.2747 57.9854C41.4511 58.0275 41.6473 57.9634 41.7108 57.8429C41.7908 57.6912 41.3527 57.573 40.2853 57.4581C39.4377 57.3669 38.6265 57.217 38.4826 57.1249C38.3061 57.0121 38.4826 57.0034 39.0264 57.0983C39.5163 57.1838 39.8861 57.1764 39.9704 57.0794C40.0467 56.9915 39.8411 56.9242 39.5137 56.9298C39.1863 56.9359 38.7993 56.8637 38.6536 56.7706C38.508 56.6775 37.9151 56.5762 37.3361 56.5456C36.757 56.5149 36.0582 56.4138 35.7833 56.3207C35.4247 56.1993 35.2345 56.2079 35.1104 56.3511C34.9957 56.4833 35.0471 56.5024 35.2624 56.4077C35.4776 56.3131 35.5291 56.3321 35.4149 56.4638C35.1707 56.7454 34.7691 56.7183 34.7579 56.4196C34.7527 56.2813 34.4916 56.1372 34.1777 56.0993C33.8638 56.0614 33.1499 55.9615 32.5912 55.8771C31.6292 55.7318 31.6491 55.7272 32.9667 55.7899C33.7319 55.8263 34.6993 55.8683 35.1165 55.8832C35.5336 55.8982 36.0472 55.9571 36.2576 56.014C37.1592 56.2582 41.8275 56.4124 41.8195 56.1978C41.8171 56.1266 41.4816 56.025 41.0746 55.9721C40.2372 55.8632 39.875 55.4658 40.2902 55.1114C40.5101 54.9236 40.4666 54.8751 40.0839 54.8816C39.8171 54.886 39.4883 54.8231 39.3533 54.7415C39.2184 54.66 38.6521 54.5599 38.0951 54.5191C35.948 54.362 34.5646 54.1623 34.4756 53.9967C34.4225 53.898 33.9713 53.8684 33.4219 53.9275C32.8509 53.989 32.3876 53.9553 32.2801 53.8447C32.1806 53.7422 31.8031 53.6635 31.4412 53.6697C30.367 53.6879 30.9848 53.4763 32.2091 53.4065C33.0793 53.357 33.31 53.3961 33.2145 53.5768C33.1464 53.7059 33.217 53.8093 33.3701 53.8067C33.5237 53.804 33.6437 53.6491 33.6367 53.4624C33.6289 53.2756 33.5036 53.1249 33.3566 53.1274C33.2097 53.1301 33.1617 53.0486 33.25 52.9468C33.3494 52.8322 33.5651 52.9024 33.8167 53.1316C34.1945 53.4757 34.2442 53.4807 34.5298 53.2035C34.7584 52.9816 34.9565 52.9451 35.3052 53.0604C35.5628 53.1457 36.1339 53.1723 36.5744 53.1195C37.3197 53.0302 37.3725 52.9777 37.3368 52.3624C37.3062 51.8391 37.2024 51.7028 36.8383 51.709C36.5853 51.7134 36.304 51.6405 36.2133 51.547C36.1225 51.4536 35.9604 51.4158 35.8529 51.4631C35.7455 51.5103 35.6996 51.3786 35.7509 51.1703C35.8232 50.8773 36.0415 50.7785 36.7158 50.734C37.3265 50.6936 37.6371 50.7574 37.7536 50.9472C37.8995 51.1849 37.9449 51.1863 38.123 50.9588C38.2785 50.7603 38.5346 50.7275 39.2163 50.8188C39.7399 50.8889 40.1042 50.873 40.1007 50.7802C40.0983 50.6836 40.2684 50.68 40.5422 50.7708C41.3331 51.0333 43.1443 51.1425 43.1362 50.9271C43.1321 50.82 43.2442 50.7777 43.3852 50.833C43.5261 50.8883 43.6385 50.8564 43.635 50.7619C43.6285 50.5872 42.0733 50.2635 41.2959 50.275C41.0613 50.2793 40.7954 50.2053 40.7051 50.1123C40.599 50.0031 40.9496 49.9693 41.6966 50.0168C42.415 50.0624 42.8497 50.0238 42.8456 49.9142C42.8432 49.8173 42.4129 49.7382 41.8921 49.7384C41.3713 49.7384 40.4899 49.7145 39.9333 49.6851C39.3767 49.6556 37.9046 49.6524 36.662 49.6781C34.3741 49.7252 34.0486 49.626 35.5519 49.3394C36.4394 49.1702 35.5792 49.2161 32.4147 49.5068C31.4765 49.5929 30.9655 49.5775 30.9612 49.4628C30.9588 49.3655 31.1518 49.2427 31.3928 49.1899C32.0264 49.0512 29.0059 49.274 25.7903 49.6031C21.7078 50.0209 18.112 50.2108 18.1044 50.0091C18.102 49.9157 18.5727 49.8076 19.153 49.769C20.1748 49.701 20.193 49.6893 19.7337 49.3972C19.3196 49.1337 18.9686 49.1128 16.9655 49.2323L14.6716 49.3692L15.7944 49.0113L16.9172 48.6534L15.9709 48.7725C14.508 48.9565 8.75825 49.0618 8.89697 48.9021C8.96481 48.8239 8.78797 48.8633 8.50384 48.9894C8.11405 49.1626 7.91423 49.1721 7.68925 49.0282C7.46429 48.8843 7.64097 48.7877 8.40948 48.6343C8.96957 48.5225 9.52063 48.4402 9.63409 48.4513C9.74749 48.4626 9.89658 48.4557 9.9653 48.4364C10.205 48.3687 10.8554 48.2742 12.6021 48.053C15.4804 47.6886 15.5634 47.674 15.8288 47.4862C16.0047 47.3616 15.9892 47.3074 15.7788 47.311C15.5446 47.3153 15.5445 47.2349 15.7785 46.966C16.0194 46.6891 16.017 46.5897 15.7669 46.4908C15.593 46.422 13.7592 46.4001 11.6917 46.4421C8.70182 46.5029 7.95676 46.4728 8.05045 46.2953C8.22161 45.9709 8.82253 45.7801 10.1788 45.6196C11.5005 45.4631 12.0725 45.0537 11.4046 44.7422C11.0779 44.5899 11.2461 44.5291 12.3079 44.4158C13.0256 44.3393 13.7243 44.3205 13.8607 44.374C13.997 44.4275 14.1052 44.3809 14.101 44.2707C14.0959 44.1192 14.1806 44.1163 14.4499 44.259C14.7229 44.4038 14.8358 44.3918 14.9329 44.2079C15.0025 44.0759 15.3793 43.9219 15.7701 43.8657C17.1809 43.6629 18.0001 43.5204 18.7376 43.3493C19.1506 43.2535 19.9127 43.191 20.4312 43.2104C20.9496 43.2297 21.4031 43.1812 21.4389 43.1023C21.4747 43.0235 21.957 42.941 22.5107 42.9191C23.0643 42.8972 23.5925 42.7974 23.6843 42.6973C23.7777 42.5954 24.6619 42.5067 25.695 42.4955C27.674 42.4739 28.2867 42.2347 27.9776 41.6042C27.8708 41.3862 27.9294 41.3134 28.1683 41.3673C28.3581 41.4102 28.4832 41.5427 28.4464 41.6617C28.3955 41.8264 28.6678 41.8435 29.5853 41.733C30.2485 41.6531 30.9405 41.5794 31.1229 41.5693C31.3424 41.5571 31.3997 41.4177 31.292 41.1573C31.1591 40.8356 31.2339 40.7572 31.7009 40.7283C33.2382 40.6332 33.8826 40.5828 35.0415 40.4673C35.7333 40.3984 36.8438 40.2876 37.5094 40.2211C38.2056 40.1515 38.856 40.1726 39.0411 40.2707C39.2727 40.3935 39.4779 40.3459 39.7744 40.1006C40.2371 39.7179 41.4376 39.5881 41.2788 39.938C41.1809 40.1534 41.8986 39.9707 42.319 39.6732C42.5518 39.5084 42.8403 39.4121 42.9602 39.4592C43.0801 39.5063 43.2467 39.4653 43.3305 39.369C43.4332 39.2507 43.6399 39.2464 43.9634 39.3559C44.2902 39.4665 44.4941 39.4607 44.601 39.3374C44.6896 39.2352 45.1413 39.1906 45.638 39.2351C46.2063 39.286 46.459 39.2532 46.3514 39.1424C46.1784 38.9643 47.6392 38.9291 48.12 39.0998C48.5625 39.2568 48.8543 39.2182 49.8421 38.8717C50.3705 38.6865 50.7305 38.6181 50.6422 38.72C50.5522 38.8236 50.6666 38.9019 50.902 38.8979C51.172 38.8936 51.267 38.8006 51.1675 38.6386C51.0824 38.4999 51.1366 38.3843 51.2881 38.3817C51.4836 38.3782 51.4831 38.3152 51.2856 38.1637C50.7658 37.7633 52.1107 37.0118 52.6871 37.3805C52.9124 37.5246 52.9836 37.5215 52.9778 37.3676C52.9738 37.2556 53.1972 37.16 53.4748 37.1553C53.8113 37.1492 53.9837 37.2599 53.9923 37.4862C54 37.673 53.8916 37.8277 53.7527 37.8301C53.6139 37.8317 53.503 37.9042 53.5062 37.9896C53.5086 38.075 53.9935 38.1066 54.582 38.0599C58.123 37.7787 61.1277 37.4951 62.4291 37.3192C63.2496 37.2084 65.1191 37.0672 66.5835 37.0055C68.048 36.9439 69.5054 36.7955 69.8224 36.6758C70.2225 36.5247 70.4537 36.5124 70.5784 36.6355C70.6773 36.7331 70.9663 36.7877 71.2209 36.7569C71.9523 36.6684 72.0313 36.4996 71.3359 36.5114C70.9461 36.5175 70.7014 36.4258 70.6955 36.27C70.6865 36.0208 71.026 35.893 72.1305 35.7303C72.4421 35.6844 72.8156 35.5553 72.9605 35.4435C73.1521 35.2957 73.1391 35.2744 72.913 35.3654C72.742 35.4343 72.599 35.4097 72.5953 35.3108C72.5913 35.2119 72.9008 35.1269 73.2826 35.1218C73.8234 35.1148 73.8944 35.1503 73.6043 35.2836C73.2861 35.4297 73.2962 35.4539 73.6737 35.4497C73.9166 35.448 74.1107 35.322 74.1051 35.1719C74.0986 35.0018 74.2356 34.9327 74.4689 34.9884C74.6746 35.0376 74.9072 35.0035 74.9859 34.9128C75.0645 34.8221 74.9556 34.7509 74.7435 34.7545C74.5055 34.7589 74.4096 34.6633 74.4929 34.5054C74.6447 34.2177 74.1328 34.0499 73.0236 34.0236C71.1993 33.9803 71.1354 33.9703 71.5281 33.7899C71.7329 33.6959 71.7867 33.6145 71.6476 33.6092C71.5085 33.6039 71.0302 33.5736 70.5847 33.5421C70.1392 33.5106 69.7083 33.5613 69.6272 33.6548C69.4287 33.8835 68.1662 33.8931 67.8151 33.6686C67.6126 33.539 67.4883 33.5411 67.3713 33.6764C67.2818 33.7795 66.9693 33.8679 66.6768 33.8729C65.9449 33.8854 66.3315 34.0898 67.4775 34.2964C68.0529 34.4002 68.6599 34.4068 69.0089 34.3131C69.363 34.218 69.7113 34.2238 69.9077 34.3278C70.084 34.4213 70.4112 34.4469 70.6348 34.3848C70.8583 34.3227 71.0441 34.3476 71.0476 34.4401C71.0566 34.6873 70.003 34.8493 69.6395 34.6565C69.4421 34.5519 69.2741 34.5518 69.1835 34.6565C69.0282 34.8356 68.4055 34.831 68.1205 34.6487C68.0236 34.5867 67.4011 34.4969 66.7372 34.4491C65.6961 34.3742 65.5421 34.3143 65.6163 34.014C65.6646 33.8192 65.5073 33.5711 65.2593 33.4509C65.0156 33.3328 64.9151 33.232 65.036 33.227C65.157 33.2218 65.1115 33.1065 64.9348 32.9705C64.6747 32.7702 64.6903 32.7018 65.0166 32.6111C65.6268 32.4416 65.5168 31.9764 64.9004 32.1196C64.5989 32.1897 64.3969 32.1587 64.3925 32.0418C64.3884 31.9296 64.039 31.8662 63.5662 31.8917C63.1158 31.916 62.6331 31.921 62.4935 31.903C62.3539 31.8848 62.1418 31.8836 62.022 31.9002C61.9023 31.9171 61.4169 31.8519 60.9435 31.7557C59.719 31.5067 59.7971 31.1022 61.0738 31.0805C62.1202 31.0627 62.506 30.7317 61.5019 30.7133C61.1892 30.7072 61.4699 30.6181 62.1256 30.5144C62.7814 30.4108 63.3156 30.2633 63.3127 30.1867C63.3049 29.997 62.5497 29.5264 62.26 29.5313C62.1312 29.533 62.0212 29.4162 62.0157 29.2706C62.0093 29.1027 62.1228 29.0515 62.3261 29.1307C62.5139 29.2039 62.4714 29.0857 62.2233 28.8452C61.9009 28.5325 61.5374 28.4265 60.6957 28.3995C60.0882 28.3801 59.5026 28.2754 59.3941 28.1669C59.2461 28.0186 59.1981 28.0223 59.2012 28.1818C59.2036 28.2986 59.0176 28.3973 58.7882 28.4012C58.4552 28.4073 58.4859 28.3378 58.9402 28.0589C59.2532 27.8667 59.6704 27.7067 59.8672 27.7033C60.0641 27.6998 60.4014 27.5725 60.6168 27.4201C60.8789 27.2346 61.2505 27.1712 61.7403 27.2285C62.2303 27.2858 62.4143 27.2544 62.2968 27.1335C62.2 27.0338 61.7124 26.9933 61.2078 27.0431C60.4824 27.1147 60.174 27.0518 59.7111 26.7363C58.9067 26.1886 58.961 26.0878 60.1831 25.8598C61.1341 25.6824 61.197 25.6882 60.7681 25.9142C60.5038 26.0534 60.1389 26.1698 59.9573 26.1729C59.2965 26.1841 59.6614 26.4963 60.5453 26.676C61.3067 26.8309 61.5215 26.8157 61.8872 26.5814C62.1267 26.428 62.484 26.2986 62.6812 26.2938C62.9791 26.2868 62.9745 26.2552 62.6542 26.1083C62.3369 25.9628 62.3538 25.9487 62.7498 26.0282C63.5326 26.1854 66.1746 25.723 66.1636 25.4307C66.1558 25.2204 65.873 25.2035 64.4663 25.3291C62.9264 25.4667 62.8074 25.4552 63.1081 25.1985C63.4044 24.9455 63.3344 24.9244 62.4177 24.9896C61.8566 25.0295 61.2483 25.14 61.0658 25.2351C60.8834 25.3302 60.4226 25.435 60.042 25.468C59.4804 25.5167 59.3472 25.4593 59.3362 25.1649C59.3258 24.8843 59.4334 24.8233 59.8098 24.8967C60.3428 25.0006 60.7744 24.7137 60.2602 24.5972C59.8757 24.5101 54.2686 24.6834 51.0562 24.8817C49.7746 24.9608 48.7248 24.9918 48.7232 24.9507C48.7208 24.8864 51.6489 24.6111 55.7917 24.286C57.2722 24.1699 57.7783 24.0253 57.7669 23.7218C57.7591 23.5231 57.1905 23.4902 54.667 23.5426C50.0533 23.6385 46.5471 23.5588 46.4379 23.3554C46.3852 23.2572 45.9007 23.1844 45.3615 23.1936C44.5959 23.2067 44.4107 23.1543 44.5161 22.9545C44.6426 22.7148 44.0761 22.6927 42.9646 22.8938C42.8267 22.9188 42.4862 22.928 42.2079 22.9144C41.795 22.894 41.8303 22.8554 42.3999 22.7046C42.9252 22.5654 43.03 22.4674 42.8236 22.3085C42.608 22.1424 42.8421 22.0877 43.9188 22.0526C44.6721 22.0281 45.6067 21.9169 45.9959 21.8056C46.3851 21.6942 47.2071 21.6044 47.8226 21.606C48.4381 21.6076 48.8623 21.5581 48.7652 21.496C48.5909 21.3845 47.9619 21.3224 46.909 21.3128C46.6113 21.3101 46.2915 21.1837 46.1983 21.0319C46.0566 20.8012 46.0932 20.79 46.4212 20.964C46.6897 21.1063 46.8113 21.1118 46.8064 20.9814C46.8024 20.8766 46.7136 20.7821 46.6091 20.7715C46.2199 20.7319 44.3322 20.6703 42.3069 20.6312C40.1306 20.5891 38.4909 20.1899 38.6307 19.736C38.6872 19.5527 38.6307 19.5531 38.3152 19.7376C38.0164 19.9132 37.9289 19.9168 37.9228 19.7532C37.9176 19.6199 37.6829 19.5768 37.2811 19.6356C36.9325 19.6866 36.5993 19.6789 36.5407 19.6186C36.482 19.5583 36.005 19.4968 35.4807 19.482C34.9563 19.4672 34.3589 19.3658 34.1532 19.2567C33.9474 19.1476 33.7405 19.0781 33.6933 19.1023C33.4837 19.2096 32.85 19.1453 32.8451 19.0162C32.8427 18.9376 33.3527 18.9168 33.9796 18.97C34.7392 19.0343 35.1185 19.0047 35.1164 18.8812C35.114 18.7613 35.181 18.7546 35.305 18.8625C35.4105 18.9542 35.838 19.0374 36.255 19.0475C37.6788 19.082 39.5216 19.2285 39.6623 19.3185C39.7396 19.368 39.6052 19.5107 39.3639 19.6359C38.9495 19.8508 38.9536 19.8679 39.438 19.9444C40.3436 20.0874 41.9421 19.8398 41.7833 19.5811C41.67 19.3966 42.0329 19.3426 43.5604 19.3166C45.7105 19.28 46.2106 18.9928 44.143 18.9821C39.3662 18.9574 38.901 18.9114 38.8841 18.4625C38.8751 18.2164 38.5338 18.1981 34.6808 18.2369C32.8125 18.2558 32.6428 18.2299 32.744 17.9391C32.8211 17.7181 33.0012 17.6491 33.3323 17.7136C33.5948 17.7648 33.8067 17.7328 33.8034 17.6425C33.7982 17.4952 30.6835 17.0222 29.7401 17.0254C26.5525 17.0363 25.447 17.0061 25.4433 16.9084C25.4381 16.7662 26.9099 16.4444 28.428 16.256C29.1562 16.1656 29.4135 16.0752 29.1756 15.9933C28.8375 15.8769 26.8829 15.6288 26.2497 15.6218C26.0949 15.6202 25.778 15.5178 25.5455 15.3946C25.1313 15.175 23.389 15.1466 22.1106 15.3387C21.7605 15.3912 20.7943 15.4839 19.9633 15.5444C18.2051 15.6727 18.592 15.4986 21.1427 15.014C23.8523 14.4991 23.3306 14.173 19.7852 14.1657C18.4658 14.1629 17.2726 14.1604 17.1337 14.1596C16.9948 14.1596 17.0398 14.0876 17.2336 14.0004C17.7028 13.7892 15.5109 13.6015 14.327 13.7516C13.8509 13.8119 13.4586 13.7896 13.4553 13.7022C13.4529 13.6147 13.1047 13.549 12.6835 13.5561C12.2622 13.5631 11.625 13.4472 11.2674 13.2981L10.6171 13.027L11.3396 12.808C11.737 12.6875 12.8692 12.4777 13.8557 12.3416C15.765 12.0784 16.1312 11.775 14.336 11.9438C13.5085 12.0215 13.3507 11.9998 13.6381 11.8476C13.9322 11.6919 13.8262 11.6644 13.1281 11.7154C12.5682 11.7563 12.264 11.7084 12.294 11.5839C12.343 11.3806 11.683 11.3977 10.0953 11.6405C9.35035 11.7546 9.42524 11.7028 10.5875 11.3004C11.564 10.9624 12.2856 10.8324 13.0955 10.8487C13.7209 10.8613 14.6825 10.8003 15.2324 10.7133C16.0579 10.5825 16.1441 10.5335 15.7269 10.4319C15.4489 10.3642 14.6819 10.3127 14.0224 10.3174C13.1572 10.3235 12.8208 10.258 12.8142 10.0822C12.8064 9.88686 12.3258 9.84849 10.3872 9.88859C9.05742 9.9162 7.86312 9.87065 7.73323 9.78756C7.5908 9.69647 7.86304 9.61365 8.419 9.57892C9.53567 9.50924 9.83341 9.39438 9.65427 9.10258C9.48387 8.82501 10.0505 8.6566 11.4553 8.56733C12.0572 8.5291 12.6765 8.40797 12.8317 8.29815C13.0439 8.14798 12.7226 8.13168 11.5355 8.2323C10.3138 8.33591 9.97132 8.31627 10.0195 8.14538C10.0538 8.02399 9.91286 7.92406 9.70647 7.92333C9.50003 7.92333 9.29135 7.79972 9.24272 7.65032C9.17036 7.42793 9.4983 7.3518 11.0515 7.23037C12.095 7.14876 13.4116 6.96322 13.9773 6.818C14.5431 6.67276 15.3392 6.53117 15.7465 6.50328C16.1538 6.47541 16.7078 6.30699 16.9778 6.12899C17.2803 5.92953 17.9565 5.77254 18.7403 5.71982C19.4398 5.67278 20.1561 5.5496 20.3323 5.44607C20.7874 5.17859 23.4592 4.66122 24.3071 4.67637C24.7635 4.68421 24.9566 4.62367 24.8435 4.50725C24.7449 4.40574 24.8182 4.34255 25.0093 4.36422C25.1976 4.38556 26.3144 4.32085 27.4911 4.22033C28.6677 4.11982 29.7893 4.05336 29.9836 4.07267C30.1778 4.09192 30.4031 4.03888 30.4841 3.9548C30.7491 3.67978 34.3512 3.00902 36.0272 2.92264C37.4936 2.84703 37.6722 2.79877 37.7318 2.46206C37.8063 2.04092 38.2077 1.95384 38.4272 2.31125C38.6217 2.62815 39.49 2.4392 39.6607 2.04279C39.7777 1.77097 40.0372 1.72695 41.488 1.73272C43.1661 1.73882 43.9452 1.95987 43.1236 2.19559C42.8671 2.26919 43.1366 2.31568 43.7955 2.3116C44.6175 2.30638 44.8604 2.24767 44.7567 2.07888C44.6555 1.91388 44.7997 1.87174 45.2919 1.92268C45.6626 1.961 46.1003 2.06003 46.2647 2.14267C46.4503 2.23606 46.6255 2.22133 46.7275 2.10374C46.8462 1.96694 46.9878 1.96557 47.239 2.09852C47.4659 2.21877 48.0064 2.23136 48.7961 2.13475C49.4613 2.05331 50.2893 1.97581 50.6359 1.96243C51.1209 1.94389 51.2584 1.85056 51.232 1.55857L51.1977 1.17901L60.1793 1.12388C68.9961 1.06979 92.7987 0.816455 95.03 0.753012C95.6543 0.735235 96.2787 0.721219 96.4176 0.721916C101.079 0.741952 109.252 0.745874 112.325 0.729758C114.547 0.71808 118.183 0.723662 120.406 0.742827C126.612 0.795697 135.427 0.791513 136.691 0.734984C137.315 0.707026 137.939 0.685601 138.078 0.68743C138.217 0.689063 139.582 0.70937 141.11 0.732284C146.42 0.811892 151.758 0.83102 158.661 0.795257C166.963 0.752231 174.881 0.748482 178.861 0.785753C181.482 0.810308 184.742 0.809951 199.06 0.784117C201.49 0.779761 208.136 0.739352 213.828 0.694458C219.52 0.649603 226.109 0.619641 228.47 0.62783C230.832 0.63567 234.846 0.630555 237.392 0.6158C240.813 0.595845 242.074 0.644627 242.228 0.802842C242.377 0.956321 242.483 0.9621 242.603 0.823238C242.696 0.716741 242.893 0.677145 243.041 0.73525C243.189 0.793431 245.483 0.829632 248.139 0.815811C250.796 0.802036 255.468 0.786025 258.523 0.780278C267.551 0.763291 268.262 0.754846 268.392 0.662922C268.46 0.614582 269.014 0.667278 269.624 0.778982C270.233 0.89109 270.793 0.939226 270.868 0.885929C271.063 0.747554 276.067 0.726437 276.414 0.862484C276.573 0.924847 277.897 0.974376 279.358 0.972538C287.678 0.962084 302.225 0.999621 303.478 1.0349C304.034 1.0505 306.932 1.07784 309.919 1.09544C312.905 1.11313 315.72 1.18488 316.174 1.25492C316.649 1.32817 316.997 1.31764 316.994 1.2301C316.991 1.14639 317.642 1.09754 318.441 1.12158C319.241 1.14562 319.895 1.17323 319.895 1.18298C319.898 1.21843 327.637 1.22296 334.288 1.19169C340.688 1.16129 350.433 1.1606 354.993 1.19006C356.104 1.19703 359.343 1.20966 362.19 1.21749C365.037 1.22533 368.788 1.25896 370.525 1.29197C372.263 1.32498 376.296 1.3282 379.489 1.29894C390.815 1.19543 399.956 1.17259 401.328 1.24433C403.201 1.3422 408.926 1.41596 410.802 1.36635C413.931 1.28361 415.626 1.27942 416.608 1.35206C417.166 1.39325 418.36 1.43759 419.263 1.45056C420.167 1.46344 422.383 1.49507 424.19 1.52059C425.996 1.5461 427.929 1.59305 428.486 1.62484C430.454 1.73729 433.077 1.81427 436.322 1.85482C438.128 1.87739 439.947 1.90055 440.364 1.9063C440.833 1.91239 441.195 2.0313 441.315 2.21716C441.483 2.47996 442.008 2.59564 442.414 2.45964C442.488 2.435 442.644 2.51373 442.761 2.63456C442.994 2.87413 445.329 2.99133 445.32 2.76299C445.316 2.68582 445.485 2.61971 445.693 2.61618C445.901 2.61269 446.074 2.66983 446.077 2.74338C446.081 2.81689 446.309 2.88465 446.587 2.89401C446.866 2.90332 447.09 2.82999 447.086 2.73097C447.082 2.62337 447.246 2.63925 447.494 2.77042C448.036 3.05781 451.847 3.09085 452.321 2.81222C452.586 2.65624 452.649 2.66066 452.596 2.83156C452.517 3.08482 452.944 3.13174 455.87 3.19183C458.853 3.25315 460.263 3.397 460.422 3.65645C460.537 3.84369 460.623 3.83963 460.914 3.63311C461.161 3.45844 461.442 3.42419 461.845 3.51951C462.162 3.59459 463.214 3.70029 464.181 3.75442C465.148 3.8085 465.799 3.88799 465.627 3.93101C465.455 3.97403 465.316 4.06861 465.319 4.14124C465.324 4.27337 468.715 4.89911 469.883 4.98326C470.629 5.03709 470.878 5.36292 470.243 5.45662C469.994 5.49346 470.505 5.65619 471.379 5.81823C472.253 5.98028 472.971 6.17099 472.973 6.2421C472.977 6.31318 473.577 6.49398 474.309 6.64385C475.529 6.89359 475.593 6.93141 475.08 7.09632C474.695 7.2196 474.339 7.22064 473.948 7.09981C472.914 6.77946 472.215 6.72079 471.867 6.92523C471.615 7.07333 471.384 7.07962 470.998 6.949C470.709 6.85118 470.046 6.76888 469.523 6.7661C469.001 6.76337 468.497 6.68622 468.403 6.59476C468.14 6.33893 464.958 6.42649 464.595 6.69957C464.342 6.88985 464.475 6.90797 465.356 6.80327C466.213 6.70154 466.427 6.72723 466.434 6.93309C466.441 7.10509 466.694 7.18551 467.201 7.17686C467.662 7.16902 467.961 7.25211 467.966 7.38923C467.973 7.5452 467.73 7.59458 467.179 7.54971C466.686 7.50955 466.445 7.54807 466.546 7.65232C466.726 7.8377 468.21 7.9773 470.895 8.06154C471.869 8.09202 473.446 8.22514 474.4 8.35727C475.469 8.50528 476.615 8.55102 477.384 8.47645C478.371 8.38072 478.665 8.40965 478.791 8.6147C478.878 8.75728 479.192 8.94165 479.489 9.02438C479.948 9.15269 479.925 9.16299 479.33 9.09458C478.93 9.04859 478.635 9.08935 478.639 9.19007C478.643 9.28673 478.333 9.35682 477.951 9.34583C477.568 9.33477 477.012 9.3845 476.713 9.45605C476.415 9.52765 476.1 9.51241 476.012 9.42226C475.825 9.22963 474.36 9.5523 474.369 9.78424C474.373 9.8655 474.544 9.88496 474.751 9.82736C475.336 9.66497 477.066 9.89207 476.647 10.0762C476.458 10.1593 476.211 10.1908 476.097 10.1462C475.984 10.1017 475.826 10.1891 475.746 10.3404C475.662 10.4999 475.375 10.5986 475.065 10.5751C474.77 10.5528 474.531 10.6238 474.534 10.7328C474.538 10.8418 474.455 10.9896 474.354 11.0615C474.052 11.2748 474.153 11.4754 474.559 11.4685C474.767 11.465 474.941 11.5767 474.947 11.7167C474.952 11.8582 475.181 11.9676 475.461 11.9628C475.797 11.9567 475.97 12.0674 475.978 12.2938C475.986 12.4805 476.105 12.6314 476.243 12.629C476.382 12.6274 476.492 12.5207 476.487 12.3936C476.481 12.2383 476.687 12.1857 477.116 12.2333C477.773 12.3062 478.331 12.641 477.719 12.5951C477.016 12.5423 476.768 12.6274 476.918 12.8713C477.017 13.032 476.861 13.1836 476.484 13.2926C475.9 13.4616 475.901 13.4628 476.59 13.4618C476.972 13.4618 477.288 13.5398 477.291 13.6365C477.295 13.7528 477.449 13.7546 477.744 13.6417C478.102 13.5049 478.201 13.5391 478.242 13.8145C478.283 14.0896 478.183 14.14 477.736 14.0675C477.429 14.0176 476.859 13.9813 476.469 13.9867C476.079 13.9919 475.818 13.9296 475.889 13.848C475.96 13.7661 475.543 13.7664 474.958 13.848C474.375 13.9301 473.839 13.9409 473.766 13.8722C473.554 13.6709 472.491 13.5581 472.498 13.7375C472.502 13.8276 472.407 13.8631 472.288 13.8165C471.945 13.6818 470.21 14.0911 470.38 14.2664C470.464 14.3534 470.981 14.4169 471.528 14.4076C472.081 14.3983 472.525 14.4734 472.529 14.5768C472.533 14.6949 472.997 14.7336 473.796 14.6827C474.489 14.6385 475.058 14.6595 475.06 14.7297C475.064 14.7997 475.264 14.8548 475.507 14.8521C475.749 14.8505 476.122 14.9267 476.334 15.0239C476.669 15.1779 476.667 15.1906 476.315 15.1223C476.092 15.0792 475.753 15.124 475.561 15.2201C475.27 15.3666 475.276 15.3814 475.596 15.3079C475.808 15.2593 476.321 15.314 476.737 15.4306C477.424 15.6223 477.32 15.6365 475.611 15.5855C473.885 15.5339 473.758 15.5521 474.084 15.8027C474.385 16.0347 474.384 16.0691 474.079 16.0301C473.881 16.0049 473.751 16.0792 473.79 16.1953C473.829 16.3115 473.678 16.4096 473.455 16.4134C473.172 16.4186 473.098 16.33 473.21 16.1203C473.502 15.5751 473.453 15.4877 472.826 15.435C472.304 15.3911 472.256 15.4218 472.522 15.627C472.974 15.9752 472.651 16.4271 471.941 16.4392C471.609 16.4453 471.34 16.5205 471.343 16.6074C471.347 16.6943 471.095 16.7942 470.783 16.8293C469.946 16.9239 470.108 17.207 471.121 17.4204C471.611 17.5236 471.848 17.6151 471.647 17.6238C471.354 17.6363 471.346 17.6809 471.604 17.8465C471.936 18.0583 472.039 18.0784 472.914 18.1002C473.192 18.1072 473.424 18.2226 473.429 18.3567C473.435 18.5074 473.75 18.6157 474.254 18.64L475.07 18.6794L474.214 19.2453C473.452 19.7488 473.196 19.814 471.892 19.8369C470.979 19.8523 470.487 19.9258 470.588 20.0298C470.677 20.1217 470.63 20.199 470.483 20.2015C470.336 20.2042 470.21 20.0487 470.203 19.8564C470.195 19.6629 470.077 19.5564 469.937 19.6179C469.798 19.679 469.764 19.8108 469.862 19.9109C469.986 20.0393 469.524 20.069 468.291 20.0116C462.372 19.7363 460.926 19.6643 460.473 19.6222C460.194 19.5964 459.742 19.6596 459.468 19.7626C459.194 19.8657 458.629 19.9414 458.212 19.931C457.634 19.9166 457.545 19.9505 457.839 20.0736C458.178 20.216 458.177 20.2362 457.832 20.2444C457.617 20.2505 457.327 20.1804 457.187 20.0909C457.047 20.0013 456.391 19.9235 455.73 19.918C455.069 19.9119 454.47 19.8478 454.399 19.7744C454.327 19.701 453.984 19.7342 453.637 19.848C453.141 20.0101 452.958 20.0081 452.794 19.8385C452.638 19.6786 452.456 19.6705 452.097 19.8075C451.767 19.9339 450.407 19.9641 447.84 19.9022C443.046 19.7865 442.617 19.793 442.798 19.9786C442.994 20.1804 444.424 20.3033 446.678 20.312C447.927 20.3172 448.479 20.3813 448.409 20.5144C448.347 20.6307 448.708 20.746 449.3 20.7994C450.765 20.9316 450.589 21.275 449.105 21.1775C448.444 21.1341 446.198 21.0847 444.115 21.0677C442.031 21.0507 439.643 21.0066 438.808 20.9695C437.974 20.9324 437.154 20.8995 436.986 20.8963C436.819 20.8928 436.73 20.8338 436.79 20.7648C436.85 20.6957 436.727 20.5979 436.515 20.5474C435.74 20.3622 431.688 20.1666 428.248 20.1484C426.304 20.1381 424.547 20.0706 424.343 19.9982C423.906 19.8433 421.483 20.1859 421.491 20.4014C421.495 20.4826 422.057 20.4975 422.742 20.4343C423.543 20.3605 424.054 20.3874 424.173 20.5095C424.286 20.6264 424.244 20.6549 424.062 20.5835C423.885 20.5142 423.77 20.5774 423.776 20.7394C423.783 20.9044 423.612 20.9949 423.343 20.9692C423.048 20.941 422.926 21.0215 422.98 21.2099C423.024 21.3656 422.946 21.5435 422.805 21.6052C422.665 21.6668 422.547 21.6211 422.542 21.5035C422.536 21.3518 422.458 21.3438 422.271 21.4759C422.035 21.643 421.885 21.9889 421.837 22.4739C421.828 22.5675 421.706 22.5313 421.566 22.3936C421.331 22.1624 421.281 22.1906 421.333 22.5249C421.344 22.5949 421.092 22.7001 420.774 22.759C420.362 22.8351 420.111 22.772 419.903 22.5385C419.708 22.3203 419.554 22.2763 419.441 22.4068C419.348 22.5144 419.398 22.6004 419.554 22.5977C419.709 22.595 419.775 22.6632 419.7 22.7491C419.46 23.0263 418.508 22.7669 418.651 22.4633C418.76 22.2321 418.727 22.236 418.452 22.4869C418.087 22.819 416.289 23.0827 416.279 22.8055C416.275 22.7109 416.136 22.6935 415.969 22.7668C415.803 22.8401 414.413 22.9004 412.881 22.9008C411.35 22.9008 408.762 22.9112 407.131 22.9231C405.5 22.9351 404.164 22.9 404.162 22.8456C404.157 22.7912 403.816 22.7524 403.4 22.7595C402.983 22.7664 402.645 22.8341 402.648 22.9096C402.652 22.9852 402.359 22.9774 402 22.8923C401.082 22.6754 400.865 22.7042 401.057 23.0173C401.197 23.2454 401.14 23.2606 400.7 23.1119C400.294 22.9745 400.11 22.9923 399.877 23.191C399.712 23.332 399.647 23.4558 399.734 23.4659C399.821 23.4761 399.997 23.4922 400.124 23.5017C400.252 23.5112 400.444 23.5749 400.55 23.6431C400.657 23.7113 401.227 23.759 401.817 23.749C402.407 23.739 403.1 23.7809 403.357 23.8424C403.765 23.94 403.745 23.9686 403.197 24.0709C402.641 24.1744 402.679 24.195 403.527 24.2519C404.244 24.3 404.45 24.2611 404.35 24.0971C404.183 23.8258 406.349 23.7461 406.61 24.0139C406.719 24.1266 406.548 24.1529 406.122 24.0887C405.712 24.0269 405.469 24.0603 405.473 24.1779C405.477 24.2814 405.565 24.3521 405.668 24.335C405.772 24.318 406.196 24.3613 406.61 24.4315C407.258 24.5411 407.296 24.5761 406.883 24.6816C406.543 24.7682 406.764 24.8313 407.635 24.8966C408.942 24.9945 409.39 24.8939 408.766 24.6433C408.466 24.5226 408.501 24.4892 408.938 24.4797C409.241 24.4727 409.67 24.5842 409.893 24.7265C410.115 24.8688 410.422 24.9303 410.575 24.863C410.728 24.7957 410.929 24.8165 411.021 24.909C411.113 25.0016 411.975 25.1111 412.937 25.1524C414.625 25.225 415.075 25.3022 414.828 25.4769C414.764 25.5224 413.536 25.6179 412.099 25.6891C410.594 25.7637 409.416 25.8996 409.32 26.0096C409.21 26.1362 409.099 26.1109 408.991 25.9344C408.772 25.5783 406.284 25.5895 406.297 25.9464C406.305 26.1317 405.958 26.1687 404.663 26.1209C403.575 26.0807 403.021 26.1225 403.026 26.2432C403.038 26.552 403.289 26.5732 407.459 26.6173C411.849 26.6636 412.929 26.736 413.195 27.0018C413.377 27.1844 414.09 27.2057 419.283 27.1833C421.052 27.1754 422.929 27.2361 423.454 27.3178C423.979 27.3994 425.601 27.4765 427.06 27.4891C428.519 27.5016 430.622 27.5324 431.734 27.5574C432.846 27.5823 435.058 27.6306 436.65 27.6645C438.242 27.6984 439.778 27.7587 440.064 27.7984C440.349 27.8381 441.005 27.8584 441.52 27.8436C442.243 27.8227 442.427 27.8738 442.325 28.0676C442.214 28.2774 441.628 28.3135 438.759 28.2868C436.87 28.2693 435.24 28.2214 435.135 28.1804C435.031 28.1394 434.885 28.1761 434.811 28.2615C434.625 28.4752 435.56 28.6055 437.108 28.5819C438.189 28.5654 438.428 28.6179 438.548 28.8985C438.681 29.2089 438.887 29.2291 441.22 29.1616C442.668 29.1197 443.894 29.1616 444.089 29.2601C444.447 29.4408 445.695 29.5985 447.596 29.7033C449.2 29.7918 449.366 29.8447 449.405 30.2807C449.424 30.4935 449.493 30.5707 449.559 30.4522C449.625 30.3337 449.792 30.2812 449.93 30.3355C450.068 30.3898 450.6 30.4266 451.111 30.4174C451.622 30.4087 452.156 30.4609 452.298 30.5346C452.44 30.6083 453.024 30.6866 453.597 30.7088C454.169 30.7309 454.627 30.8256 454.615 30.9193C454.602 31.0129 454.477 31.0638 454.337 31.0323C454.197 31.0008 453.23 30.9695 452.188 30.9629C451.146 30.9568 450.122 30.9066 449.911 30.8527C449.533 30.7556 448.686 31.0167 448.92 31.1582C448.987 31.1985 449.544 31.2691 450.158 31.315C451.285 31.3992 451.888 31.5603 451.125 31.5733C450.862 31.5777 450.768 31.6717 450.867 31.8325C450.992 32.0357 450.783 32.088 449.796 32.1015C449.122 32.1108 448.151 32.0602 447.638 31.9893C446.854 31.8806 446.731 31.9007 446.864 32.1166C446.987 32.3169 446.877 32.3569 446.362 32.2998C446 32.2595 445.556 32.2928 445.377 32.3738C445.159 32.472 445.295 32.5177 445.785 32.5111C446.289 32.5041 446.751 32.6667 447.255 33.0277C447.659 33.3173 448.064 33.5015 448.155 33.4371C448.246 33.3727 448.189 33.3222 448.027 33.3249C447.865 33.3277 447.73 33.2635 447.727 33.1824C447.723 33.1012 448.109 33.0373 448.583 33.0404C449.242 33.0447 449.385 33.097 449.192 33.2626C449.007 33.4207 449.049 33.4774 449.348 33.4723C449.81 33.4645 449.905 33.725 449.505 33.9012C449.332 33.977 449.404 34.1375 449.711 34.3616C449.971 34.5509 450.026 34.6472 449.834 34.5757C449.623 34.4971 449.402 34.5397 449.274 34.6835C449.107 34.8715 449.059 34.8591 449.047 34.6242C449.038 34.4608 448.985 34.3279 448.927 34.3289C448.869 34.3306 448.621 34.2829 448.376 34.2245C448.093 34.1568 447.994 34.183 448.104 34.2963C448.395 34.5955 447.614 34.689 445.311 34.6305C442.893 34.5691 439.705 34.7846 440.193 34.9764C440.363 35.043 441.036 35.0999 441.688 35.1028C442.341 35.1056 443.938 35.1732 445.236 35.2525C446.535 35.332 447.751 35.3541 447.94 35.3018C448.163 35.2398 448.236 35.2939 448.15 35.4565C447.967 35.8041 446.893 35.974 446.43 35.7287C446.18 35.5958 446.05 35.5891 446.054 35.7093C446.058 35.8103 445.731 35.8826 445.327 35.8699C444.924 35.8571 444.651 35.7802 444.721 35.6989C444.792 35.6177 444.581 35.6122 444.254 35.6869C443.927 35.7616 443.627 35.8828 443.588 35.9564C443.548 36.03 443.206 35.9885 442.827 35.8641C442.378 35.7167 442.109 35.7006 442.055 35.8178C441.937 36.0756 442.082 36.1287 442.991 36.1597C443.436 36.1748 443.802 36.252 443.805 36.331C443.809 36.41 443.915 36.429 444.042 36.373C444.169 36.3171 444.341 36.3411 444.424 36.4265C444.507 36.5119 444.374 36.5644 444.13 36.5433C443.885 36.5221 443.608 36.5909 443.512 36.6961C443.407 36.8122 442.697 36.8803 441.706 36.8694C440.808 36.8596 440.009 36.9249 439.932 37.0146C439.723 37.2554 443.507 37.6408 446.634 37.697C449.82 37.7543 451.862 37.889 452.583 38.0893C453.004 38.2064 454.429 38.3388 455.75 38.3835C458.441 38.4746 459.179 38.6011 459.832 39.0826C460.161 39.3248 460.888 39.4652 462.524 39.6027C463.758 39.7063 465.797 40.0016 467.056 40.2588C469.909 40.8413 472.646 41.2333 473.72 41.2132C474.467 41.1987 474.856 41.4224 474.341 41.5693C474.225 41.6024 474.064 41.8321 473.984 42.0797C473.798 42.6529 474.25 42.9028 475.519 42.9287C476.254 42.9437 476.561 43.044 476.8 43.3467C476.972 43.5658 477.456 43.8496 477.875 43.9775C478.406 44.1394 478.605 44.3028 478.53 44.5161C478.457 44.726 478.61 44.8588 479.016 44.9384C479.561 45.045 479.537 45.0647 478.73 45.1797C478.247 45.2486 476.657 45.2867 475.198 45.2644C470.925 45.1994 469.462 45.4351 471.642 45.8376C472.264 45.9526 472.236 45.967 471.313 46.0095C470.311 46.0555 470.309 46.0567 471.064 46.1942C471.481 46.2704 472.351 46.3156 472.996 46.2949C474.28 46.2535 474.735 46.3605 474.748 46.7073C474.753 46.8319 474.954 46.9809 475.195 47.0386C475.573 47.1289 475.583 47.1682 475.269 47.3232C474.991 47.4601 474.981 47.5226 475.224 47.5842C475.885 47.7514 475.27 47.9339 474.254 47.8724C473.264 47.8125 471.419 48.1129 470.925 48.4146C470.614 48.6042 471.501 48.6857 474.699 48.7613C476.228 48.7974 477.991 48.8597 478.618 48.8996C479.244 48.9395 480.239 48.9628 480.829 48.951C482.908 48.9098 481.687 49.5247 479.501 49.6201C478.684 49.6557 477.877 49.7613 477.707 49.8547C477.537 49.9482 477.396 49.9744 477.393 49.9129C477.389 49.8515 477.185 49.8794 476.935 49.9749C476.685 50.0704 475.786 50.1773 474.936 50.2125C473.065 50.2898 472.569 50.4552 473.384 50.7307C473.727 50.8468 474.355 50.8782 474.92 50.8074C475.463 50.7395 475.948 50.7603 476.04 50.8552C476.129 50.9473 476.508 51.0235 476.882 51.0245C477.256 51.0262 477.421 51.0674 477.249 51.1174C476.662 51.2886 476.937 51.6891 477.65 51.6998C478.439 51.7118 475.912 51.9971 474.193 52.0902C473.569 52.1239 472.886 52.2126 472.674 52.2872C472.463 52.3619 471.444 52.4568 470.41 52.4983C469.376 52.5397 468.305 52.6374 468.03 52.7153C467.549 52.8517 470.156 52.7641 475.722 52.4569C477.177 52.3766 478.277 52.3764 478.166 52.4569C478.055 52.537 477.83 52.6133 477.667 52.6264C477.504 52.6395 477.172 52.6653 476.929 52.6836C476.244 52.7356 476.418 52.9608 477.328 53.1992C477.91 53.3517 479.193 53.3908 481.641 53.3306C485.132 53.2447 486.815 53.4018 485.079 53.6516C484.612 53.7188 483.039 53.8324 481.583 53.9039C479.263 54.0179 474.743 54.3182 471.257 54.5898C470.634 54.6383 468.763 54.7459 467.1 54.8287C463.394 55.0134 461.9 55.1601 461.525 55.3762C461.342 55.4813 461.176 55.4777 461.067 55.3662C460.829 55.1209 460.155 55.1584 460.241 55.4121C460.284 55.5375 459.91 55.67 459.307 55.7437C458.581 55.8323 458.477 55.8758 458.934 55.8999C459.282 55.9183 459.708 55.9186 459.881 55.8999C460.053 55.8818 460.198 55.9459 460.202 56.0424C460.206 56.1388 459.952 56.212 459.64 56.205C458.554 56.1808 455.547 56.5106 455.469 56.6625C455.426 56.7465 455.291 56.7763 455.17 56.7288C455.048 56.6812 453.725 56.7431 452.229 56.8662C450.734 56.9894 448.546 57.1456 447.368 57.2133C445.654 57.3118 441.635 57.6271 439.312 57.8454C439.105 57.8649 438.37 57.9797 437.681 58.1005C436.37 58.33 435.225 58.478 434.477 58.5144C434.234 58.5261 434.039 58.6123 434.042 58.7057C434.05 58.9116 435.164 58.908 436.19 58.6987C436.602 58.6145 437.225 58.5896 437.575 58.6436C438.125 58.7285 438.059 58.763 437.079 58.9027C436.458 58.9913 435.632 59.0874 435.244 59.116C434.314 59.1847 434.075 59.3735 434.777 59.4844C435.796 59.6452 435.369 59.8161 433.785 59.8816C432.927 59.9171 432.141 59.9828 432.039 60.0276C431.937 60.0724 430.139 60.1734 428.043 60.252C425.947 60.3306 424.042 60.481 423.81 60.5862C423.486 60.7332 423.642 60.7499 424.483 60.6584C425.103 60.591 425.945 60.6218 426.426 60.7296C427.091 60.8788 428.269 60.8551 431.888 60.6196C439.568 60.1199 443.901 59.6405 444.351 59.2409C444.556 59.0592 444.659 59.04 444.665 59.1828C444.671 59.3424 445.099 59.3638 446.372 59.2682C447.307 59.1979 448.865 59.0848 449.835 59.0169C450.804 58.949 452.276 58.8042 453.105 58.6951C453.934 58.586 454.954 58.4963 455.37 58.4958C455.787 58.4958 456.619 58.4942 457.22 58.4942C458.693 58.4926 458.257 58.7714 456.605 58.8875C456.305 58.9086 455.977 58.9846 455.875 59.0564C455.774 59.1282 455.312 59.1934 454.85 59.2013C453.92 59.2171 453.683 59.549 454.59 59.5656C454.902 59.5717 455.232 59.5683 455.322 59.5586C456.63 59.4207 458.647 59.4634 458.812 59.6325C458.957 59.7821 459.426 59.8001 460.494 59.6968C461.851 59.5656 461.934 59.5759 461.483 59.8196C461.212 59.966 460.903 60.0512 460.795 60.0091C460.688 59.9669 460.605 60.0325 460.61 60.1547C460.625 60.4545 462.123 61.0086 462.948 61.0186C463.313 61.023 463.813 61.1549 464.058 61.3116C464.339 61.491 464.69 61.5531 465.008 61.4793C465.355 61.3987 465.48 61.4304 465.412 61.5815C465.282 61.8675 467.073 62.8996 467.686 62.8922C468.541 62.8818 469.303 63.0677 469.312 63.2885C469.322 63.5689 469.901 63.7015 471.03 63.6823C472.584 63.6558 471.799 63.822 469.801 63.9425C468.059 64.0475 467.001 64.1715 466.115 64.3741C465.867 64.4308 465.931 64.5859 466.367 64.9927C466.687 65.2912 467.127 65.6281 467.345 65.7412C467.676 65.9133 467.681 65.9485 467.377 65.9571C465.645 66.0061 463.022 66.2278 462.512 66.3684C462.167 66.4634 460.944 66.6006 459.794 66.6732C456.34 66.8914 455.208 67.0307 455.601 67.1891C455.881 67.3018 455.863 67.3336 455.513 67.3416C455.006 67.3533 454.929 67.6194 455.402 67.7281C455.577 67.7683 457.082 67.7534 458.746 67.695C460.787 67.6234 461.589 67.6435 461.21 67.7571C460.901 67.8496 460.65 67.9544 460.651 67.9899C460.655 68.0255 462.442 68.0263 464.628 67.9915C471.369 67.8854 475.293 67.9091 475.298 68.0557C475.302 68.1329 474.765 68.2196 474.106 68.2483C473.448 68.2771 472.512 68.3204 472.027 68.3447C469.107 68.4905 462.662 68.7827 460.213 68.8802C458.637 68.943 457.289 69.036 457.217 69.087C457.145 69.138 456.846 69.146 456.552 69.1046C456.259 69.0633 455.681 69.1062 455.268 69.1999C454.855 69.2936 454.659 69.3743 454.833 69.3794C455.006 69.3846 455.153 69.5078 455.158 69.6533C455.164 69.7989 455.062 69.8764 454.933 69.8255C454.803 69.7745 454.521 69.8574 454.306 70.0097C454.091 70.1619 453.982 70.3556 454.064 70.4401C454.147 70.5247 453.816 70.6005 453.33 70.6088C452.845 70.6175 452.381 70.5557 452.3 70.4724C452.214 70.3837 451.789 70.403 451.274 70.5191C450.552 70.6817 450.423 70.7799 450.554 71.0675C450.641 71.2602 450.618 71.343 450.501 71.2516C450.046 70.895 449.643 71.0046 449.779 71.4479L449.915 71.8868L447.211 71.8291C445.724 71.7973 444.065 71.7339 443.526 71.6881C442.872 71.6327 442.482 71.6771 442.357 71.821C442.211 71.9898 441.92 71.9993 441.028 71.8641C440.399 71.769 438.708 71.6684 437.269 71.6406C435.83 71.6128 434.325 71.5611 433.925 71.5258C433.321 71.4725 433.249 71.5014 433.502 71.6959C433.669 71.8248 433.717 71.9635 433.607 72.0041C433.262 72.1323 431.864 72.1694 431.685 72.0551L431.687 72.0544ZM355.254 73.5247C355.425 73.4746 355.709 73.4698 355.884 73.514C356.06 73.5582 355.919 73.5991 355.572 73.605C355.225 73.6111 355.082 73.5748 355.254 73.5247V73.5247Z" fill="#4CACBC"/>
</svg>
