<svg width="14" height="16" viewBox="0 0 14 16" fill="none" xmlns="http://www.w3.org/2000/svg">
<path d="M1.375 15.875H8.125C8.42328 15.8747 8.70925 15.7561 8.92017 15.5452C9.13108 15.3343 9.2497 15.0483 9.25 14.75V13.0625H8.125V14.75H1.375V1.25H8.125V2.9375H9.25V1.25C9.2497 0.951723 9.13108 0.665748 8.92017 0.454834C8.70925 0.24392 8.42328 0.125298 8.125 0.125H1.375C1.07672 0.125298 0.790748 0.24392 0.579834 0.454834C0.36892 0.665748 0.250298 0.951723 0.25 1.25V14.75C0.250298 15.0483 0.36892 15.3343 0.579834 15.5452C0.790748 15.7561 1.07672 15.8747 1.375 15.875Z" fill="#4CACBC"/>
<path d="M9.57963 10.5796L11.5968 8.5625H3.625V7.4375H11.5968L9.57963 5.42037L10.375 4.625L13.75 8L10.375 11.375L9.57963 10.5796Z" fill="#4CACBC"/>
</svg>
