<svg width="23" height="18" viewBox="0 0 23 18" fill="none" xmlns="http://www.w3.org/2000/svg">
<path d="M0 1.5C0 0.671573 0.671573 0 1.5 0H21.5C22.3284 0 23 0.671573 23 1.5C23 2.32843 22.3284 3 21.5 3H1.5C0.671573 3 0 2.32843 0 1.5ZM0 9C0 8.17157 0.671573 7.5 1.5 7.5H21.5C22.3284 7.5 23 8.17157 23 9C23 9.82843 22.3284 10.5 21.5 10.5H1.5C0.671573 10.5 0 9.82843 0 9ZM0 16.5C0 15.6716 0.671573 15 1.5 15H21.5C22.3284 15 23 15.6716 23 16.5C23 17.3284 22.3284 18 21.5 18H1.5C0.671573 18 0 17.3284 0 16.5Z" fill="#4CACBC"/>
</svg>
