<svg width="16" height="16" viewBox="0 0 16 16" fill="none" xmlns="http://www.w3.org/2000/svg">
<path d="M0.854021 0.145899C0.807533 0.0994111 0.752344 0.062535 0.691605 0.0373759C0.630865 0.0122168 0.565765 -0.000732421 0.500021 -0.000732422C0.434277 -0.000732422 0.369177 0.0122168 0.308438 0.0373759C0.247698 0.062535 0.192509 0.0994111 0.146021 0.145899C0.0995332 0.192387 0.0626571 0.247576 0.037498 0.308316C0.0123389 0.369055 -0.000610352 0.434155 -0.000610352 0.499899C-0.000610351 0.565643 0.0123389 0.630743 0.037498 0.691483C0.0626571 0.752222 0.0995332 0.807411 0.146021 0.853899L3.64602 4.3519C1.91259 5.53423 0.705829 7.3433 0.280021 9.3979C0.266626 9.46225 0.266037 9.5286 0.278286 9.59318C0.290536 9.65775 0.315385 9.71928 0.351414 9.77426C0.387443 9.82923 0.433947 9.87657 0.488271 9.91357C0.542594 9.95057 0.603673 9.9765 0.668021 9.9899C0.732369 10.0033 0.798725 10.0039 0.8633 9.99163C0.927876 9.97938 0.989406 9.95453 1.04438 9.91851C1.09935 9.88248 1.14669 9.83597 1.18369 9.78165C1.22069 9.72733 1.24663 9.66625 1.26002 9.6019C1.45079 8.67847 1.82384 7.80237 2.35733 7.02487C2.89083 6.24738 3.57406 5.58412 4.36702 5.0739L5.95302 6.6599C5.54179 6.95643 5.19989 7.33876 4.95098 7.78044C4.70206 8.22212 4.55207 8.7126 4.51139 9.21795C4.47071 9.72331 4.5403 10.2315 4.71535 10.7073C4.8904 11.1831 5.16673 11.6152 5.52523 11.9737C5.88373 12.3322 6.31583 12.6085 6.79164 12.7836C7.26745 12.9586 7.77561 13.0282 8.28096 12.9875C8.78632 12.9468 9.2768 12.7969 9.71848 12.5479C10.1602 12.299 10.5425 11.9571 10.839 11.5459L15.146 15.8539C15.2399 15.9478 15.3672 16.0005 15.5 16.0005C15.6328 16.0005 15.7601 15.9478 15.854 15.8539C15.9479 15.76 16.0007 15.6327 16.0007 15.4999C16.0007 15.3671 15.9479 15.2398 15.854 15.1459L0.854021 0.145899V0.145899ZM10.119 10.8259C9.91944 11.1443 9.65062 11.4137 9.33258 11.6139C9.01454 11.8141 8.65545 11.94 8.28202 11.9823C7.9086 12.0246 7.53044 11.9822 7.17568 11.8582C6.82092 11.7341 6.49868 11.5317 6.23294 11.266C5.9672 11.0002 5.76479 10.678 5.64077 10.3232C5.51675 9.96848 5.4743 9.59032 5.51659 9.2169C5.55888 8.84347 5.68481 8.48438 5.88503 8.16634C6.08524 7.8483 6.35458 7.57949 6.67302 7.3799L10.119 10.8269V10.8259ZM8.12402 6.0019L11.498 9.3759C11.4667 8.49103 11.1012 7.65092 10.4751 7.02483C9.849 6.39875 9.00889 6.03322 8.12402 6.0019V6.0019ZM8.00002 3.9999C7.43002 3.9999 6.87102 4.0739 6.33402 4.2129L5.53102 3.4099C6.32592 3.13858 7.16009 3.00006 8.00002 2.9999C11.693 2.9999 14.942 5.6729 15.72 9.3979C15.7471 9.52785 15.7214 9.66324 15.6486 9.77426C15.5759 9.88528 15.462 9.96285 15.332 9.9899C15.2021 10.017 15.0667 9.99127 14.9557 9.91851C14.8446 9.84574 14.7671 9.73186 14.74 9.6019C14.058 6.3269 11.207 3.9999 8.00002 3.9999Z" fill="#A2A2A2"/>
</svg>
